<svg xmlns="http://www.w3.org/2000/svg" viewBox="0 0 680.21 1043.55"><defs><style>.cls-1{fill:#231f20;}.cls-2{fill:#242423;}.cls-3{fill:#7bc477;}.cls-4{fill:#8d7760;}.cls-5{fill:#f6cc5d;}.cls-6{fill:#414141;}.cls-7{fill:#cde4aa;}.cls-8{fill:#57bf93;}.cls-9{fill:#b6892d;}.cls-10{fill:#6d5b4b;}.cls-11{fill:#a71e32;}.cls-12{fill:#668d59;}.cls-13{fill:none;stroke:#fff;stroke-miterlimit:10;}</style></defs><title>Asset 1</title><g id="Layer_2" data-name="Layer 2"><g id="Layer_8" data-name="Layer 8"><path class="cls-1" d="M680,582.18a277.9,277.9,0,0,1-2,46.09c-.16,1.16-.33,2.32-.51,3.5l-.39-.15-.32-.12c.18-1.12.35-2.23.51-3.34a275.68,275.68,0,0,0,2.26-46c-.4-13.42-1.33-24.8-2.18-34-.7-7.56-1.34-13.67-1.83-18.24l.07,0c.52,4.56,1.21,10.65,2,18.2C678.53,557.36,679.54,568.74,680,582.18Z"/><path class="cls-2" d="M679.61,582.19a275.68,275.68,0,0,1-2.26,46c-.16,1.11-.33,2.22-.51,3.34A109.82,109.82,0,0,1,660,623.1l-3.13-1.94c-1.07-.67-2.09-1.44-3.16-2.17-2.17-1.43-4.26-3.12-6.44-4.81-1.1-.83-2.11-1.8-3.19-2.71s-2.17-1.84-3.19-2.87l-3.15-3-3-3.26c-1.05-1.07-2-2.25-3-3.42s-2-2.32-2.88-3.59L626,591.56l-2.6-3.91c-.91-1.29-1.64-2.69-2.46-4.05l-1.2-2c-.39-.7-.73-1.42-1.09-2.12-.71-1.43-1.48-2.83-2.13-4.28s-1.28-2.91-1.85-4.38c-2.28-5.89-3.75-12.16-3.24-18.23a25.11,25.11,0,0,1,7.28-15.8A35.77,35.77,0,0,1,633,528a45.2,45.2,0,0,1,15.12-2.33,80.9,80.9,0,0,1,13.07,1.16c3.88.65,7.24,1.4,10,2.06,1.6.37,3,.72,4.18,1l.21,0c.49,4.57,1.13,10.68,1.83,18.24C678.28,557.39,679.21,568.77,679.61,582.19Z"/><path class="cls-1" d="M677.55,631.77l.2.08c0,.25-.1.5-.15.75l-.18-.06C677.47,632.28,677.51,632,677.55,631.77Z"/><path class="cls-1" d="M677.42,632.54l.18.06c-.22,1-.45,2.05-.7,3.08C677.09,634.63,677.26,633.58,677.42,632.54Z"/><path class="cls-1" d="M677.55,631.77c0,.25-.08.51-.13.77l-.43-.14c.06-.27.12-.53.17-.78Z"/><path class="cls-1" d="M677,632.4l.43.14c-.16,1-.33,2.09-.52,3.14-.29,1.24-.61,2.49-.94,3.74l-.5-.2c.14-.67.27-1.33.38-2C676.26,635.61,676.64,634,677,632.4Z"/><path class="cls-1" d="M677.16,631.62c-.05.25-.11.51-.17.78l-.28-.09c.05-.27.09-.54.13-.81Z"/><path class="cls-1" d="M677,632.4c-.35,1.6-.73,3.21-1.15,4.83.33-1.66.61-3.3.87-4.92Z"/><path class="cls-1" d="M676.84,631.5c0,.27-.08.54-.13.81a99.85,99.85,0,0,1-17.61-7.72l-3.26-1.85c-1.11-.64-2.17-1.38-3.29-2.09-2.26-1.39-4.43-3-6.71-4.7-1.14-.82-2.2-1.78-3.33-2.68s-2.26-1.83-3.32-2.85l-3.3-3-3.18-3.28c-1.09-1.08-2.09-2.27-3.11-3.45s-2.08-2.34-3-3.63l-2.91-3.79-2.69-4c-.94-1.32-1.7-2.76-2.55-4.15l-1.25-2.1c-.4-.71-.75-1.45-1.13-2.18-.74-1.46-1.53-2.89-2.22-4.39s-1.34-3-2-4.56c-2.34-6.16-3.92-12.85-3.32-19.55a27.24,27.24,0,0,1,2.65-9.57,28.73,28.73,0,0,1,5.64-7.84,38.22,38.22,0,0,1,15.5-9,47.12,47.12,0,0,1,15.83-1.93,73.88,73.88,0,0,1,13.25,1.79c3.88.86,7.2,1.8,9.93,2.59,1.51.45,2.83.87,4,1.23,0,.12,0,.23.07.34-1.18-.29-2.58-.64-4.18-1-2.75-.66-6.11-1.41-10-2.06a80.9,80.9,0,0,0-13.07-1.16A45.2,45.2,0,0,0,633,528a35.77,35.77,0,0,0-14.31,8.76,25.11,25.11,0,0,0-7.28,15.8c-.51,6.07,1,12.34,3.24,18.23.57,1.47,1.18,2.94,1.85,4.38s1.42,2.85,2.13,4.28c.36.7.7,1.42,1.09,2.12l1.2,2c.82,1.36,1.55,2.76,2.46,4.05l2.6,3.91,2.78,3.73c.88,1.27,1.92,2.41,2.88,3.59s1.93,2.35,3,3.42l3,3.26,3.15,3c1,1,2.12,1.94,3.19,2.87s2.09,1.88,3.19,2.71c2.18,1.69,4.27,3.38,6.44,4.81,1.07.73,2.09,1.5,3.16,2.17L660,623.1A109.82,109.82,0,0,0,676.84,631.5Z"/><path class="cls-1" d="M676.9,635.68c-.22,1.27-.46,2.55-.71,3.84l-.23-.1C676.29,638.17,676.61,636.92,676.9,635.68Z"/><path class="cls-3" d="M676.71,632.31c-.26,1.62-.54,3.26-.87,4.92a121.43,121.43,0,0,1-10.7,27.62,93.47,93.47,0,0,1-14.57,20.25,84.45,84.45,0,0,1-9.78,8.83,82.7,82.7,0,0,1-11.56,7.23c-1,.52-2,1.07-3.1,1.57l-.95.4c-6.76-2.57-14.63-5.55-23.37-8.81-14.9-5.58-32.3-12-51-18.88-9.34-3.41-19-7-28.79-10.53L492.3,654.12l-29.79-10.69-28.88-10.29-27-9.54-24.25-8.47c-15-5.24-27.58-9.49-36.35-12.52l-10.2-3.46L332.31,598l3.43,1.32,10.06,3.86c8.69,3.27,21.06,8,36,13.58l24.07,9,26.9,9.92,28.79,10.53,29.75,10.79,29.79,10.7c9.82,3.54,19.51,6.94,28.88,10.28,18.73,6.65,36.25,12.8,51.27,18,8.36,2.92,16,5.53,22.58,7.78l-.9.39-1.62.69-1.67.6-3.36,1.2a107.44,107.44,0,0,1-14.09,3.5,135.54,135.54,0,0,1-14.86,1.83c-2.53.12-5.07.32-7.64.33-1.28,0-2.57.06-3.86.06l-3.89,0c-2.6,0-5.22-.16-7.85-.26s-5.28-.3-8-.55-5.33-.47-8-.74-5.39-.69-8.1-1c-5.43-.72-10.92-1.39-16.47-2.17l-16.73-2.91c-5.65-.88-11.27-2.25-17-3.45l-8.6-1.85-2.16-.47-2.15-.54-4.32-1.11c-5.76-1.49-11.6-2.89-17.44-4.5l-17.62-5.14c-23.58-7.26-47.61-15.88-71.93-25.69-48.67-19.63-98.33-44.2-149.37-70.17l-31-15.84-.75-.38-45.92-23.43L118.74,542a175.12,175.12,0,0,1-19.17-11,64.87,64.87,0,0,1-16-14.9,64.16,64.16,0,0,1-9.8-19.6c-.79-2.5-1.47-5.05-2.05-7.62a122.42,122.42,0,0,1-2.28-14.22c-.76-7.44-1-15-1.1-22.51q0-22.71,0-45.53V338c0-7.64,0-15.27.1-22.89.24-15.23,1-30.46,3.38-45.44s6.37-29.71,13.34-43a89,89,0,0,1,10.27-15.47q4.45,2.12,8.88,4.19,13,6.07,25.71,11.74l-3,2.1-1.53,1L124,231.37l-2.91,2.31c-1.85,1.65-3.77,3.23-5.49,5a108.85,108.85,0,0,0-18,23.5c-9.9,17.18-15.5,36.48-18.34,55.82S76,356.93,75.91,376.17s-.32,38.42,2.3,57.28A137.49,137.49,0,0,0,84.79,461a100.18,100.18,0,0,0,13,24.77c10.83,15.12,25.27,26.9,40.74,35.59a164.82,164.82,0,0,0,23.9,11,207.49,207.49,0,0,0,24.6,7.28A356.45,356.45,0,0,0,235.5,547c7.88.71,15.64,1.27,23.25,1.78s15.07,1,22.4,1.38,14.52.59,21.56.55,13.91-.43,20.57-1.16c3.34-.34,6.61-.87,9.84-1.39l4.78-1c1.58-.31,3.12-.75,4.67-1.12.77-.2,1.54-.37,2.3-.59l2.26-.68c1.49-.48,3-.86,4.44-1.43l4.32-1.59L360,540c1.39-.56,2.7-1.28,4-2l3.89-2,3.65-2.29c1.19-.77,2.42-1.47,3.52-2.34,2.22-1.7,4.52-3.22,6.49-5.06l3-2.62c1-.86,1.87-1.84,2.79-2.74a100.84,100.84,0,0,0,17-22.63c1.63-3,3.06-5.89,4.31-8.73q3.68-5.11,7.3-10.89a168.37,168.37,0,0,0,14.87-29.9c1-2.82,2.14-5.64,2.94-8.62.44-1.48.88-3,1.33-4.47l.33-1.12.27-1.15.54-2.32a125.09,125.09,0,0,0,3.24-19.31,149.49,149.49,0,0,0-2.16-42.09,171.81,171.81,0,0,0-14.71-43.41,186.42,186.42,0,0,0-11.23-19.61,168.54,168.54,0,0,0,29.95,1.78A133,133,0,0,0,499,294l3.22-1.76a32.11,32.11,0,0,0,3.16-1.84l6.11-4,5.75-4.41c1-.71,1.85-1.54,2.76-2.33s1.81-1.58,2.69-2.39l1.12-1.09q9.81,8.13,19,16.6c1.13,1,2.28,2.06,3.39,3.12l3.28,3.21L556,305.5c1.09,1,2.13,2.15,3.16,3.24l3.11,3.27q3.11,3.27,6.17,6.5l5.89,6.65,2.92,3.3,1.46,1.64,1.39,1.69,5.54,6.73,2.75,3.33c.92,1.11,1.75,2.27,2.63,3.4a438.12,438.12,0,0,1,61.81,108,474.51,474.51,0,0,1,16.28,49.46L672,514.19c.5,1.87.88,3.74,1.27,5.58s.78,3.68,1.17,5.48c.33,1.44.64,2.87.92,4.29-1.13-.36-2.45-.78-4-1.23-2.73-.79-6-1.73-9.93-2.59a73.88,73.88,0,0,0-13.25-1.79,47.12,47.12,0,0,0-15.83,1.93,38.22,38.22,0,0,0-15.5,9,28.73,28.73,0,0,0-5.64,7.84,27.24,27.24,0,0,0-2.65,9.57c-.6,6.7,1,13.39,3.32,19.55.61,1.54,1.25,3.07,2,4.56s1.48,2.93,2.22,4.39c.38.73.73,1.47,1.13,2.18l1.25,2.1c.85,1.39,1.61,2.83,2.55,4.15l2.69,4,2.91,3.79c.94,1.29,2,2.43,3,3.63s2,2.37,3.11,3.45l3.18,3.28,3.3,3c1.06,1,2.21,1.93,3.32,2.85s2.19,1.86,3.33,2.68c2.28,1.66,4.45,3.31,6.71,4.7,1.12.71,2.18,1.45,3.29,2.09l3.26,1.85A99.85,99.85,0,0,0,676.71,632.31ZM601.58,416.62l-.65-.1-1.87-.29c-.41,0-.86-.12-1.35-.15l-1.59-.07-1.83-.06c-.64,0-1.31.07-2,.12s-1.44.09-2.19.2l-2.34.39c-.39.08-.8.13-1.21.23l-1.22.33c-.82.23-1.68.43-2.52.7A53.61,53.61,0,0,0,577.7,420a56.27,56.27,0,0,0-5,2.73,54.54,54.54,0,0,0-4.52,3.41,42.08,42.08,0,0,0-4,3.78,39.57,39.57,0,0,0-5.58,7.89c-.34.63-.67,1.21-.94,1.8s-.48,1.15-.69,1.69-.41,1-.6,1.48-.28.9-.41,1.29l-.51,1.82-.17.64.33-.58.89-1.65c.19-.36.37-.76.62-1.18l.85-1.31.94-1.5,1.15-1.58a54.85,54.85,0,0,1,6-7c1.25-1.13,2.51-2.31,3.91-3.38a52.22,52.22,0,0,1,4.31-3.14c1.54-.9,3-1.9,4.63-2.64a45.73,45.73,0,0,1,4.69-2.17c.78-.32,1.57-.57,2.33-.85l1.13-.41c.38-.13.76-.21,1.13-.31l2.17-.63c.71-.19,1.4-.29,2.07-.43l1.91-.4,1.75-.24,1.55-.23c.48-.06.92-.06,1.33-.09l1.87-.13Zm-22-22.31-.75-.08-2.13-.19c-.46,0-1-.08-1.52-.1l-1.8,0-2.06,0c-.72,0-1.48.09-2.28.15s-1.62.11-2.47.23l-2.63.37c-.91.13-1.83.32-2.76.54s-1.9.4-2.87.64c-1.91.58-3.91,1.12-5.87,1.89s-3.9,1.62-5.86,2.48c-1.87,1-3.79,2-5.55,3.12a61.35,61.35,0,0,0-5.08,3.49,58.16,58.16,0,0,0-8,7.4c-.53.59-1,1.15-1.51,1.71l-1.25,1.63L524.15,419c-.33.45-.6.89-.86,1.27-.49.78-.88,1.39-1.15,1.8s-.34.54-.37.61l.5-.51,1.48-1.54c.31-.33.63-.71,1-1.1l1.29-1.22,1.45-1.4c.54-.46,1.1-1,1.68-1.47a90.94,90.94,0,0,1,8.31-6.49c1.62-1,3.27-2.14,5-3.14s3.56-2,5.37-2.91,3.69-1.78,5.59-2.48,3.74-1.41,5.56-2.05c.91-.3,1.83-.55,2.72-.82s1.76-.52,2.62-.7l2.51-.63c.81-.19,1.61-.31,2.37-.46l2.19-.42,2-.3,1.76-.27c.55-.08,1.05-.1,1.5-.14l2.12-.23ZM556.9,372.58h.69l-.67-.16L555,372c-.42-.08-.87-.19-1.38-.27l-1.63-.23-1.87-.25c-.66-.05-1.36-.07-2.09-.1s-1.49-.07-2.28,0l-2.44.08a25.59,25.59,0,0,0-2.57.24c-.87.11-1.77.19-2.68.34-1.79.37-3.67.69-5.52,1.25s-3.69,1.2-5.54,1.85c-1.78.83-3.6,1.57-5.27,2.53a51,51,0,0,0-4.84,2.94,48.28,48.28,0,0,0-7.57,6.51c-.51.53-1,1-1.43,1.53l-1.17,1.48-1,1.3c-.31.41-.56.81-.8,1.15l-1.07,1.65-.36.58L504,394l1.39-1.37c.29-.3.59-.64,1-1l1.22-1.07,1.37-1.23,1.58-1.29a72.45,72.45,0,0,1,7.84-5.55c1.53-.87,3.09-1.79,4.74-2.59s3.35-1.56,5.06-2.32,3.47-1.37,5.24-1.86,3.5-1,5.2-1.44c.85-.2,1.7-.35,2.53-.52a24.45,24.45,0,0,1,2.44-.42l2.33-.34c.76-.11,1.49-.13,2.2-.2l2-.18,1.83-.07,1.63-.07c.5,0,1,0,1.38,0Z"/><path class="cls-1" d="M676,529.76l.06.29-.43-.1,0-.31Z"/><path class="cls-1" d="M676,529.76l-.4-.12c-.11-.89-.2-1.73-.29-2.5q-.09-.83-.18-1.56C675.48,527,675.77,528.38,676,529.76Z"/><path class="cls-1" d="M675.46,639.22l.5.2a122.55,122.55,0,0,1-10.09,25.82,94.71,94.71,0,0,1-14.6,20.52,84,84,0,0,1-9.85,9,82.74,82.74,0,0,1-11.67,7.4c-1,.51-2,1-3,1.55l-1.53-.58.95-.4c1.05-.5,2.07-1.05,3.1-1.57a82.7,82.7,0,0,0,11.56-7.23,84.45,84.45,0,0,0,9.78-8.83,93.47,93.47,0,0,0,14.57-20.25,121.43,121.43,0,0,0,10.7-27.62C675.73,637.89,675.6,638.55,675.46,639.22Z"/><path class="cls-1" d="M675.64,529.64l0,.31-.07,0c0-.11,0-.21,0-.32Z"/><path class="cls-1" d="M675.64,529.64l-.08,0q-.15-1.32-.27-2.46c-.08-.71-.15-1.37-.21-2a2.88,2.88,0,0,1,.09.4q.09.74.18,1.56C675.44,527.91,675.53,528.75,675.64,529.64Z"/><path class="cls-1" d="M675.56,529.61c0,.11,0,.21,0,.32l-.21,0c0-.11,0-.22-.07-.34Z"/><path class="cls-1" d="M675.56,529.61l-.24-.07c-.28-1.42-.59-2.85-.92-4.29-.39-1.8-.77-3.63-1.17-5.48s-.77-3.71-1.27-5.58l-2.88-11.47a474.51,474.51,0,0,0-16.28-49.46,438.12,438.12,0,0,0-61.81-108c-.88-1.13-1.71-2.29-2.63-3.4l-2.75-3.33-5.54-6.73-1.39-1.69-1.46-1.64-2.92-3.3-5.89-6.65q-3.06-3.24-6.17-6.5l-3.11-3.27c-1-1.09-2.07-2.2-3.16-3.24l-6.53-6.39-3.28-3.21c-1.11-1.06-2.26-2.08-3.39-3.12q-9.15-8.46-19-16.6c.5-.47,1-.95,1.46-1.44q9.74,8.12,18.83,16.6c1.13,1.05,2.28,2.08,3.4,3.15l3.28,3.24,6.53,6.43c1.09,1.05,2.13,2.17,3.17,3.27s2.07,2.2,3.11,3.29l6.17,6.55,5.89,6.7,2.92,3.32L580,329l1.39,1.7,5.54,6.77,2.74,3.36c.92,1.11,1.76,2.28,2.63,3.42a436.46,436.46,0,0,1,61.5,108.65,473.06,473.06,0,0,1,16,49.67l2.82,11.5c.49,1.87.86,3.75,1.25,5.6s.76,3.68,1.13,5.49a.17.17,0,0,1,0,.07c.06.6.13,1.26.21,2S675.46,528.73,675.56,529.61Z"/><path class="cls-1" d="M675.17,525.58a2.88,2.88,0,0,0-.09-.4.17.17,0,0,0,0-.07c-.18-1.63-.31-2.88-.4-3.74C674.79,522.32,674.95,523.73,675.17,525.58Z"/><path class="cls-1" d="M626.71,703.71l-.1.05-1.19.52-1.62-.56,1.38-.59Z"/><path class="cls-1" d="M625.42,704.28l-2.07.9-1.64.72-1.69.61-3.39,1.23a108.31,108.31,0,0,1-14.24,3.62,135.49,135.49,0,0,1-15,1.93c-2.55.13-5.12.35-7.7.37-1.3,0-2.59.08-3.89.08l-3.92,0c-2.62,0-5.26-.14-7.91-.23s-5.31-.27-8-.51-5.37-.44-8.07-.71-5.4-.66-8.13-1c-5.44-.7-11-1.35-16.53-2.11l-16.79-2.86c-5.68-.85-11.32-2.21-17.05-3.38l-8.64-1.83-2.17-.46-2.16-.54L472.13,699c-5.78-1.48-11.65-2.86-17.52-4.46l-17.67-5.09q-35.52-10.78-72.2-25.52c-48.83-19.53-98.62-44-149.73-69.89L184.9,578.77c.09-1,.18-2,.26-2.91l31,15.84c51,26,100.7,50.54,149.37,70.17,24.32,9.81,48.35,18.43,71.93,25.69l17.62,5.14c5.84,1.61,11.68,3,17.44,4.5l4.32,1.11,2.15.54,2.16.47,8.6,1.85c5.72,1.2,11.34,2.57,17,3.45l16.73,2.91c5.55.78,11,1.45,16.47,2.17,2.71.34,5.41.74,8.1,1s5.36.54,8,.74,5.32.37,8,.55,5.25.24,7.85.26l3.89,0c1.29,0,2.58,0,3.86-.06,2.57,0,5.11-.21,7.64-.33a135.54,135.54,0,0,0,14.86-1.83,107.44,107.44,0,0,0,14.09-3.5l3.36-1.2,1.67-.6,1.62-.69.9-.39Z"/><path class="cls-1" d="M625.18,703.13l-1.38.59c-6.61-2.25-14.22-4.86-22.58-7.78-15-5.22-32.54-11.37-51.27-18-9.37-3.34-19.06-6.74-28.88-10.28l-29.79-10.7-29.75-10.79-28.79-10.53-26.9-9.92-24.07-9c-14.91-5.56-27.28-10.31-36-13.58l-10.06-3.86L332.31,598l3.49,1.17,10.2,3.46c8.77,3,21.33,7.28,36.35,12.52l24.25,8.47,27,9.54,28.88,10.29,29.79,10.69L522,664.91c9.82,3.55,19.45,7.12,28.79,10.53,18.67,6.85,36.07,13.3,51,18.88C610.55,697.58,618.42,700.56,625.18,703.13Z"/><path class="cls-1" d="M600.93,416.52l.65.1-.66.06-1.87.13c-.41,0-.85,0-1.33.09l-1.55.23-1.75.24-1.91.4c-.67.14-1.36.24-2.07.43l-2.17.63c-.37.1-.75.18-1.13.31l-1.13.41c-.76.28-1.55.53-2.33.85a45.73,45.73,0,0,0-4.69,2.17c-1.6.74-3.09,1.74-4.63,2.64a52.22,52.22,0,0,0-4.31,3.14c-1.4,1.07-2.66,2.25-3.91,3.38a54.85,54.85,0,0,0-6,7L559,440.28l-.94,1.5-.85,1.31c-.25.42-.43.82-.62,1.18l-.89,1.65-.33.58.17-.64L556,444c.13-.39.24-.83.41-1.29s.38-.95.6-1.48.44-1.1.69-1.69.6-1.17.94-1.8a39.57,39.57,0,0,1,5.58-7.89,42.08,42.08,0,0,1,4-3.78,54.54,54.54,0,0,1,4.52-3.41,56.27,56.27,0,0,1,5-2.73,53.61,53.61,0,0,1,5.09-2.05c.84-.27,1.7-.47,2.52-.7l1.22-.33c.41-.1.82-.15,1.21-.23l2.34-.39c.75-.11,1.49-.13,2.19-.2s1.38-.11,2-.12l1.83.06,1.59.07c.49,0,.94.11,1.35.15Z"/><path class="cls-1" d="M578.84,394.23l.75.08-.75.08-2.12.23c-.45,0-.95.06-1.5.14l-1.76.27-2,.3-2.19.42c-.76.15-1.56.27-2.37.46l-2.51.63c-.86.18-1.74.43-2.62.7s-1.81.52-2.72.82c-1.82.64-3.71,1.24-5.56,2.05s-3.73,1.63-5.59,2.48-3.66,1.83-5.37,2.91-3.41,2.09-5,3.14a90.94,90.94,0,0,0-8.31,6.49c-.58.51-1.14,1-1.68,1.47l-1.45,1.4-1.29,1.22c-.4.39-.72.77-1,1.1l-1.48,1.54-.5.51c0-.07.16-.28.37-.61s.66-1,1.15-1.8c.26-.38.53-.82.86-1.27l1.08-1.44,1.25-1.63c.46-.56,1-1.12,1.51-1.71a58.16,58.16,0,0,1,8-7.4,61.35,61.35,0,0,1,5.08-3.49c1.76-1.15,3.68-2.1,5.55-3.12,2-.86,3.88-1.79,5.86-2.48s4-1.31,5.87-1.89c1-.24,1.93-.43,2.87-.64s1.85-.41,2.76-.54l2.63-.37c.85-.12,1.68-.15,2.47-.23s1.56-.12,2.28-.15l2.06,0,1.8,0c.55,0,1.06.07,1.52.1Z"/><path class="cls-1" d="M557.59,372.58h-.69l-2,0c-.42,0-.88,0-1.38,0l-1.63.07-1.83.07-2,.18c-.71.07-1.44.09-2.2.2l-2.33.34a24.45,24.45,0,0,0-2.44.42c-.83.17-1.68.32-2.53.52-1.7.44-3.47.83-5.2,1.44s-3.5,1.22-5.24,1.86-3.45,1.43-5.06,2.32-3.21,1.72-4.74,2.59a72.45,72.45,0,0,0-7.84,5.55l-1.58,1.29-1.37,1.23-1.22,1.07c-.37.35-.67.69-1,1L504,394l-.49.48.36-.58,1.07-1.65c.24-.34.49-.74.8-1.15l1-1.3,1.17-1.48c.44-.5.92-1,1.43-1.53a48.28,48.28,0,0,1,7.57-6.51,51,51,0,0,1,4.84-2.94c1.67-1,3.49-1.7,5.27-2.53,1.85-.65,3.67-1.37,5.54-1.85s3.73-.88,5.52-1.25c.91-.15,1.81-.23,2.68-.34a25.59,25.59,0,0,1,2.57-.24l2.44-.08c.79,0,1.55,0,2.28,0s1.43.05,2.09.1l1.87.25,1.63.23c.51.08,1,.19,1.38.27l1.91.44Z"/><path class="cls-1" d="M555,178.39a105.47,105.47,0,0,1,1.8,25.71,109.46,109.46,0,0,1-16.21,51.26,111.83,111.83,0,0,1-15.31,19.38c-.59-.51-1.18-1-1.78-1.49a110,110,0,0,0,15.19-19.07A107.26,107.26,0,0,0,554.84,204a110,110,0,0,0-8.65-48.65c-.68-1.89-1.63-3.64-2.45-5.44s-1.64-3.6-2.64-5.29l-2.83-5.11c-1-1.66-2.07-3.27-3.09-4.89-.52-.81-1-1.62-1.55-2.41L532,129.89c-1.12-1.53-2.19-3.08-3.34-4.56-2.4-2.88-4.63-5.84-7.17-8.46a138.1,138.1,0,0,0-32-26.26,170.13,170.13,0,0,0-33.11-15.36,195.89,195.89,0,0,0-30.11-7.6,241.42,241.42,0,0,0-38.51-3.5l-.09-.21a243,243,0,0,1,38.7,3.14,198.62,198.62,0,0,1,30.27,7.39A171.07,171.07,0,0,1,490,89.65a148.81,148.81,0,0,1,16.74,11.52A147.08,147.08,0,0,1,522.5,115.9c2.59,2.64,4.87,5.61,7.31,8.5,1.17,1.49,2.26,3,3.4,4.59l1.71,2.32c.54.8,1,1.62,1.58,2.43,1,1.64,2.12,3.26,3.16,4.93l2.89,5.16c1,1.71,1.83,3.54,2.71,5.34s1.81,3.6,2.51,5.5,1.51,3.78,2.28,5.68,1.28,3.91,1.92,5.87a61.52,61.52,0,0,1,1.66,6A60.74,60.74,0,0,1,555,178.39Z"/><path class="cls-4" d="M546.19,155.34A110,110,0,0,1,554.84,204a107.26,107.26,0,0,1-16.15,50.19,110,110,0,0,1-15.19,19.07L522,274.7l-.92.87c-.86.79-1.76,1.55-2.64,2.33s-1.74,1.57-2.7,2.26l-5.64,4.29-6,3.87a32.81,32.81,0,0,1-3.1,1.79l-3.16,1.71a130.41,130.41,0,0,1-56.55,14,165.74,165.74,0,0,1-31.91-2.2c-1-.15-2-.32-2.92-.51a169.43,169.43,0,0,1-25-6.58A226.45,226.45,0,0,1,355,285.46c-.41-.2-.81-.39-1.21-.6a293,293,0,0,1-28.16-16.11c-12.84-8.24-25.2-17.36-37.3-26.94,5.94-.4,13.75-.93,22.85-1.7,5.22-.42,10.87-.91,16.85-1.47l4.85-.45c4.65-.44,9.48-.92,14.42-1.43,6.59-.7,13.41-1.38,20.33-2.2l21-2.48c7-.89,14.08-1.73,21-3.22a67.64,67.64,0,0,0,19.54-7.09,39.74,39.74,0,0,0,5.14-3.5c.67-.54,1.33-1.1,2-1.68l.92-.87a34.74,34.74,0,0,0,6-7.54,37.87,37.87,0,0,0,5.17-16.65A35.38,35.38,0,0,0,446.23,177a37.73,37.73,0,0,0-4.7-8.85,24.78,24.78,0,0,0-2.67-7.71,23.49,23.49,0,0,0-5-6.27,26.19,26.19,0,0,0-11.38-5.88l-.42-.09c-2.75-6.88-6.13-15.38-10.07-25.05C406.68,110,400.4,94.71,393.62,78.33c-1.95-4.64-3.88-9.38-5.88-14.18a241.42,241.42,0,0,1,38.51,3.5,195.89,195.89,0,0,1,30.11,7.6,170.13,170.13,0,0,1,33.11,15.36,138.1,138.1,0,0,1,32,26.26c2.54,2.62,4.77,5.58,7.17,8.46,1.15,1.48,2.22,3,3.34,4.56l1.67,2.31c.53.79,1,1.6,1.55,2.41,1,1.62,2.08,3.23,3.09,4.89l2.83,5.11c1,1.69,1.78,3.5,2.64,5.29S545.51,153.45,546.19,155.34Z"/><path class="cls-1" d="M525.28,274.74c-.48.49-1,1-1.46,1.44L522,274.7l1.47-1.45C524.1,273.74,524.69,274.23,525.28,274.74Z"/><path class="cls-1" d="M523.82,276.18l-1.12,1.09c-.88.81-1.79,1.59-2.69,2.39s-1.78,1.62-2.76,2.33l-5.75,4.41-6.11,4a32.11,32.11,0,0,1-3.16,1.84L499,294a133,133,0,0,1-57.6,14.49,168.54,168.54,0,0,1-29.95-1.78q-1-1.54-2-3.06a165.74,165.74,0,0,0,31.91,2.2,130.41,130.41,0,0,0,56.55-14l3.16-1.71a32.81,32.81,0,0,0,3.1-1.79l6-3.87,5.64-4.29c1-.69,1.81-1.5,2.7-2.26s1.78-1.54,2.64-2.33l.92-.87Z"/><path class="cls-1" d="M446.23,177a35.38,35.38,0,0,1,2.12,14.51,37.87,37.87,0,0,1-5.17,16.65,34.74,34.74,0,0,1-6,7.54l-.92.87c-.79-.4-1.6-.79-2.4-1.18.57-.47,1.12-1,1.65-1.45a32.77,32.77,0,0,0,5.75-6.94,35.49,35.49,0,0,0,3.91-29.64,37.5,37.5,0,0,0-3.41-7.64c0-.28-.07-.55-.11-.82s-.08-.5-.13-.75A37.73,37.73,0,0,1,446.23,177Z"/><path class="cls-5" d="M437.26,187.91a.13.13,0,0,1,0-.05l-.09-.22h0a25.84,25.84,0,0,0,2.42-4.09,27.62,27.62,0,0,0,1.67-4.91,27.15,27.15,0,0,0,.48-8.89,37.5,37.5,0,0,1,3.41,7.64A35.49,35.49,0,0,1,441.27,207a32.77,32.77,0,0,1-5.75,6.94c-.53.5-1.08,1-1.65,1.45s-1.38,1.11-2.11,1.62a37.08,37.08,0,0,1-3.9,2.45A64.64,64.64,0,0,1,409,226c-6.73,1.42-13.73,2.22-20.75,3.07l-20.94,2.58L347,234.13l-18,2.14-4.8.57L311,238.4l-23.47,2.78c-4.34-3.44-8.65-7-12.93-10.49l-3.33-2.77c4.18-.21,8.76-.49,13.66-.89,3.67-.29,7.52-.62,11.52-1,2.06-.2,4.17-.41,6.31-.65,7.39-.81,15.22-1.8,23.32-3l11.4-1.8c3.84-.69,7.74-1.34,11.64-2.1,7.82-1.51,15.74-3.13,23.62-4.95l5.9-1.39,5.87-1.47c3.92-.94,7.78-2,11.63-3,2.91-.79,5.79-1.63,8.65-2.45l2.73-.78,1.05-.31c3.39-1,6.75-2.09,10-3.36a56.57,56.57,0,0,0,10.15-5.15,32.07,32.07,0,0,0,8.1-7.45c.1-.14.21-.27.3-.41A2,2,0,0,1,437.26,187.91Z"/><path class="cls-1" d="M444.73,790.63a17.39,17.39,0,0,1-4.15,12.59,21.62,21.62,0,0,1-11.15,6.64,39.32,39.32,0,0,1-12.5,1c-8.21-.54-15.9-2.59-23.46-2.59a31.4,31.4,0,0,0-10.85,1.79,18.69,18.69,0,0,0-8.49,6.05,25.7,25.7,0,0,0-4.27,9.46c-.87,3.39-1.36,6.87-1.94,10.3a61.32,61.32,0,0,1-2.38,10.1,26.81,26.81,0,0,1-12.46,14.94,33.19,33.19,0,0,1-8.51,3.46,38.1,38.1,0,0,1-8.61,1.25l-1.05,0-1,0c-.69,0-1.38,0-2.06-.07a39.92,39.92,0,0,1-4-.5,45.36,45.36,0,0,1-13.87-5,64.87,64.87,0,0,1-10.32-7,106.08,106.08,0,0,1-12.35-12.32c-1.3-1.53-2.29-2.71-2.94-3.53-.36-.44-.62-.76-.78-1l.81.95c.67.79,1.69,2,3,3.44a106.77,106.77,0,0,0,12.6,12,62.9,62.9,0,0,0,10.34,6.74A44.36,44.36,0,0,0,328,864c1.26.24,2.58.29,3.9.41.66,0,1.33,0,2,0h1l1-.06a37.08,37.08,0,0,0,8.28-1.36,32,32,0,0,0,8.09-3.44,26,26,0,0,0,7-5.87,25.54,25.54,0,0,0,4.53-8.3,60.82,60.82,0,0,0,2.16-9.82c.54-3.41,1-6.94,1.86-10.5a27.58,27.58,0,0,1,4.55-10.31,20.89,20.89,0,0,1,9.44-6.89,33.77,33.77,0,0,1,11.67-2c8-.06,15.78,2,23.63,2.41a36.31,36.31,0,0,0,11.63-1,22.38,22.38,0,0,0,5.35-2.19,15.47,15.47,0,0,0,4.36-3.62,14.67,14.67,0,0,0,3.45-10.52,10.49,10.49,0,0,0-6.34-8.54c-3.51-1.7-7.66-2.27-11.84-2.74L411,778.2l-25.54-2.87-25.54-2.93a128,128,0,0,1-12.79-1.88A41.27,41.27,0,0,1,334.79,766a25.23,25.23,0,0,1-5.23-4.21l-1.09-1.3c-.36-.43-.65-.92-1-1.38a13.32,13.32,0,0,1-.88-1.45,16.23,16.23,0,0,1-.74-1.51,27.77,27.77,0,0,1-1.93-12.88,71.13,71.13,0,0,1,2.11-12.38,99.71,99.71,0,0,0,2.33-11.76,26.46,26.46,0,0,0-.77-11.29,18.17,18.17,0,0,0-6.15-8.87,10.94,10.94,0,0,0-9.82-1.86,15.5,15.5,0,0,0-8.06,6.28,25.91,25.91,0,0,0-3.7,9.71,91.41,91.41,0,0,0-1.14,10.39c-.48,6.91-.83,13.63-1.67,20.06a77.91,77.91,0,0,1-4.3,18.1,48.45,48.45,0,0,1-8.47,14.49,34.54,34.54,0,0,1-11.75,8.91,27.38,27.38,0,0,1-6.28,2,26.65,26.65,0,0,1-15.74-2.08,28,28,0,0,1-4.16-2.34l-.73-.75a27.57,27.57,0,0,0,14.68,4.94,27.34,27.34,0,0,0,5.82-.45,26.11,26.11,0,0,0,6.07-2,33.53,33.53,0,0,0,11.24-8.88,47.51,47.51,0,0,0,8-14.27,78.19,78.19,0,0,0,3.94-17.81c.75-6.35,1-13,1.41-20a94.67,94.67,0,0,1,1-10.65,28,28,0,0,1,3.9-10.57,19.91,19.91,0,0,1,3.94-4.37,15.81,15.81,0,0,1,5.3-2.9,13,13,0,0,1,6.2-.38A14.13,14.13,0,0,1,322.9,697,20.61,20.61,0,0,1,330,707a29,29,0,0,1,1,12.37c-.88,8.25-3.89,16-4.3,24A24.9,24.9,0,0,0,328.47,755a13.13,13.13,0,0,0,.65,1.3,8.7,8.7,0,0,0,.75,1.24c.29.39.53.81.85,1.19l.94,1.11a22.51,22.51,0,0,0,4.61,3.66,38.1,38.1,0,0,0,11.46,4.15,126,126,0,0,0,12.51,1.82l25.54,2.87,25.54,2.92L424,776.73c4.23.49,8.65,1,12.79,3a17.28,17.28,0,0,1,2.94,1.82,14,14,0,0,1,2.47,2.51A12.67,12.67,0,0,1,444.73,790.63Z"/><path class="cls-6" d="M441.88,790.91a14.67,14.67,0,0,1-3.45,10.52,15.47,15.47,0,0,1-4.36,3.62,22.38,22.38,0,0,1-5.35,2.19,36.31,36.31,0,0,1-11.63,1c-7.85-.44-15.64-2.47-23.63-2.41a33.77,33.77,0,0,0-11.67,2,20.89,20.89,0,0,0-9.44,6.89,27.58,27.58,0,0,0-4.55,10.31c-.87,3.56-1.32,7.09-1.86,10.5a60.82,60.82,0,0,1-2.16,9.82,25.54,25.54,0,0,1-4.53,8.3,26,26,0,0,1-7,5.87,32,32,0,0,1-8.09,3.44,37.08,37.08,0,0,1-8.28,1.36l-1,.06h-1c-.67,0-1.34,0-2,0-1.32-.12-2.64-.17-3.9-.41a44.36,44.36,0,0,1-13.66-4.62A62.9,62.9,0,0,1,304,852.62a106.77,106.77,0,0,1-12.6-12c-1.34-1.49-2.36-2.65-3-3.44l-.81-.95-.19-.23h0c.42-.71.86-1.4,1.34-2.07a25.16,25.16,0,0,1,3.39-3.89,18.17,18.17,0,0,1,11.51-5c4.35-.26,8.81.75,13.25,2s9.06,2.64,14,2.95a20.49,20.49,0,0,0,14.3-4,13.35,13.35,0,0,0,4.48-6.44,14.05,14.05,0,0,0,0-7.82,17.44,17.44,0,0,0-3.62-6.79,24,24,0,0,0-5.8-4.82,34.73,34.73,0,0,0-6.7-3.11,51,51,0,0,0-7-2,76.74,76.74,0,0,0-14.36-1.48c-9.55-.2-18.95.8-28.17.85a92.25,92.25,0,0,1-13.65-.95,52.71,52.71,0,0,1-12.93-3.52,34.76,34.76,0,0,1-10.88-7.14l-.11-.12a28,28,0,0,0,4.16,2.34A26.65,26.65,0,0,0,266.28,787a27.38,27.38,0,0,0,6.28-2,34.54,34.54,0,0,0,11.75-8.91,48.45,48.45,0,0,0,8.47-14.49,77.91,77.91,0,0,0,4.3-18.1c.84-6.43,1.19-13.15,1.67-20.06a91.41,91.41,0,0,1,1.14-10.39,25.91,25.91,0,0,1,3.7-9.71,15.5,15.5,0,0,1,8.06-6.28,10.94,10.94,0,0,1,9.82,1.86,18.17,18.17,0,0,1,6.15,8.87,26.46,26.46,0,0,1,.77,11.29,99.71,99.71,0,0,1-2.33,11.76,71.13,71.13,0,0,0-2.11,12.38,27.77,27.77,0,0,0,1.93,12.88,16.23,16.23,0,0,0,.74,1.51,13.32,13.32,0,0,0,.88,1.45c.32.46.61.95,1,1.38l1.09,1.3a25.23,25.23,0,0,0,5.23,4.21,41.27,41.27,0,0,0,12.33,4.52,128,128,0,0,0,12.79,1.88l25.54,2.93L411,778.2l12.71,1.43c4.18.47,8.33,1,11.84,2.74A10.49,10.49,0,0,1,441.88,790.91Z"/><path class="cls-1" d="M441.77,169.74a27.15,27.15,0,0,1-.48,8.89,27.62,27.62,0,0,1-1.67,4.91,25.84,25.84,0,0,1-2.42,4.09l-1-2.46a23.38,23.38,0,0,0,1.49-2.54,24.44,24.44,0,0,0,1.65-4.46,25.25,25.25,0,0,0,.58-9,24.23,24.23,0,0,0-.52-2.87c.3.39.59.8.89,1.24C440.81,168.19,441.29,168.94,441.77,169.74Z"/><path class="cls-1" d="M441.66,168.92c0,.27.08.54.11.82-.48-.8-1-1.55-1.44-2.23-.3-.44-.59-.85-.89-1.24-.08-.36-.17-.72-.28-1.07.53.59,1.08,1.25,1.64,2,.24.32.49.65.73,1C441.58,168.42,441.62,168.67,441.66,168.92Z"/><path class="cls-1" d="M441.53,168.17c-.24-.35-.49-.68-.73-1-.56-.72-1.11-1.38-1.64-2a21.67,21.67,0,0,0-1.56-4.08,22.78,22.78,0,0,0-4.48-6.11,24.86,24.86,0,0,0-10.77-6.13h0l-.26-.66.42.09a26.19,26.19,0,0,1,11.38,5.88,23.49,23.49,0,0,1,5,6.27A24.78,24.78,0,0,1,441.53,168.17Z"/><path class="cls-5" d="M440,169.14a25.25,25.25,0,0,1-.58,9,24.44,24.44,0,0,1-1.65,4.46,23.38,23.38,0,0,1-1.49,2.54l-.89-2.32c-1.87-4.83-4.64-11.93-8.15-21-1.57-4-3.28-8.36-5.12-13.07l.26.07h0A24.86,24.86,0,0,1,433.12,155a22.78,22.78,0,0,1,4.48,6.11,21.67,21.67,0,0,1,1.56,4.08c.11.35.2.71.28,1.07A24.23,24.23,0,0,1,440,169.14Z"/><path class="cls-1" d="M437.4,369.7a149.49,149.49,0,0,1,2.16,42.09,125.09,125.09,0,0,1-3.24,19.31l-.54,2.32-.27,1.15-.33,1.12c-.45,1.5-.89,3-1.33,4.47-.8,3-1.95,5.8-2.94,8.62A168.37,168.37,0,0,1,416,478.68q-3.62,5.78-7.3,10.89c.46-1.06.9-2.1,1.31-3.13q2.65-3.91,5.29-8.19a166.5,166.5,0,0,0,14.52-29.86c1-2.81,2.08-5.61,2.85-8.58.42-1.47.84-2.95,1.27-4.44l.33-1.12.25-1.14c.17-.76.35-1.53.52-2.3a125.87,125.87,0,0,0,3.06-19.15A148.85,148.85,0,0,0,435.71,370a169.73,169.73,0,0,0-14.78-42.87,184.71,184.71,0,0,0-12.27-20.92c.93.16,1.86.3,2.8.44a186.42,186.42,0,0,1,11.23,19.61A171.81,171.81,0,0,1,437.4,369.7Z"/><path class="cls-7" d="M435.71,370a148.85,148.85,0,0,1,2.43,41.63,125.87,125.87,0,0,1-3.06,19.15c-.17.77-.35,1.54-.52,2.3l-.25,1.14-.33,1.12c-.43,1.49-.85,3-1.27,4.44-.77,3-1.89,5.77-2.85,8.58a166.5,166.5,0,0,1-14.52,29.86q-2.62,4.28-5.29,8.19c-.42.62-.84,1.22-1.26,1.82-.48,1.1-1,2.21-1.52,3.33-1,2.11-2.13,4.26-3.35,6.43a99.67,99.67,0,0,1-17.08,22.32c-.93.89-1.81,1.85-2.8,2.7s-2,1.7-3,2.57c-2,1.8-4.26,3.28-6.48,4.94a39.75,39.75,0,0,1-3.5,2.29l-3.63,2.23-3.86,2c-.72.37-1.44.75-2.18,1.11l0,0h0c-.57.28-1.15.54-1.75.77l-4.12,1.74-4.28,1.53c-1.43.55-2.93.91-4.41,1.37l-2.23.67c-.76.21-1.52.37-2.29.56-1.53.35-3.06.78-4.63,1.07l-4.73.9c-3.2.49-6.44,1-9.76,1.29-6.61.68-13.44,1-20.43,1s-14.15-.27-21.46-.68-14.76-1-22.36-1.52-15.34-1.16-23.19-1.92a353.29,353.29,0,0,1-48.17-7.49,209.43,209.43,0,0,1-24.29-7.3,163.37,163.37,0,0,1-23.51-11c-15.18-8.6-29.29-20.21-39.8-35a97.56,97.56,0,0,1-12.58-24.16,134.15,134.15,0,0,1-6.36-27c-2.53-18.56-2.21-37.66-2.18-56.88s.47-38.59,3.34-57.73c.72-4.78,1.58-9.55,2.65-14.26s2.32-9.39,3.79-14,3.21-9.12,5.09-13.57a138.41,138.41,0,0,1,6.5-12.94,105.55,105.55,0,0,1,17.5-22.88c1.67-1.73,3.53-3.25,5.31-4.86l2.82-2.23,1.42-1.11,1.48-1,3-2c.53-.37,1.09-.7,1.65-1,23.15,10.19,45.6,19.22,67.18,26.72,30.47,10.63,59.14,18.26,84.94,22.92,12.9,2.35,25,4.13,36.34,5.22l4.18.44c1.38.14,2.76.22,4.11.33l7.95.61c2.6.16,5.13.24,7.61.37.93,0,1.84.08,2.75.13a234.53,234.53,0,0,0,32.25,13.87,173.25,173.25,0,0,0,28,7.1,184.71,184.71,0,0,1,12.27,20.92A169.73,169.73,0,0,1,435.71,370Zm-23.18,25.65a87.47,87.47,0,0,0-7.81-38.53,73,73,0,0,0-10.53-16.53,66.49,66.49,0,0,0-14.59-12.84c-10.86-7-23.19-10.95-35.35-13.21A179.78,179.78,0,0,0,326,312.25c-6.05-.54-12.05-.62-18-.84-1.48,0-3-.12-4.43-.12l-4.42.05-8.76.09c-2.9,0-5.77.28-8.63.41s-5.71.27-8.53.49a362.51,362.51,0,0,0-62.72,10.59c-9.55,2.46-18.57,5.3-27.07,8.19l-12.33,4.5-11.45,4.71c-1.87.73-3.65,1.58-5.4,2.39l-5.18,2.4-5,2.31-4.72,2.41-8.85,4.55-.65.36c.55-.34,1.05-.61,1.48-.86l2.06-1.17-2.08,1.14a23.25,23.25,0,0,0-2.42,1.44l-.11.08-1.57,1.07c-.28.19-.57.38-.86.59l-.87.72-.67.56-1.21,1c-.67.54-1.27,1.22-2,1.87a51.31,51.31,0,0,0-4.12,4.63A54.67,54.67,0,0,0,110,379.19a58.7,58.7,0,0,0-2.62,8.58c0,.1,0,.2-.07.29a56.44,56.44,0,0,0-1.26,9.74l-.09,2.64c0,.89,0,1.78.08,2.69a55.41,55.41,0,0,0,.49,5.52A65.11,65.11,0,0,0,109.3,420c5.06,15.32,16.46,30.58,32.61,42.11A135.69,135.69,0,0,0,169,476.87a247.31,247.31,0,0,0,31.3,10.31c10.93,2.85,22.24,5.52,34,7.53a268.32,268.32,0,0,0,36.14,4,195.39,195.39,0,0,0,37.59-2c1.58-.22,3.15-.55,4.72-.82s3.15-.55,4.72-.94l4.7-1.07c1.56-.41,3.11-.86,4.66-1.29l2.34-.65,2.3-.76,4.62-1.53,4.54-1.76c.76-.3,1.53-.57,2.27-.9l2.24-1a136.34,136.34,0,0,0,17.37-9.13l4.14-2.69c1.38-.89,2.67-1.91,4-2.87,2.72-1.87,5.18-4.08,7.76-6.15L382,461.8c.6-.57,1.23-1.1,1.81-1.7l1.71-1.8c.9-1,1.85-1.91,2.73-2.89-.19,2.44-.29,3.74-.29,3.74s.16-1.37.47-3.94c.17-.18.33-.36.48-.55l3.2-3.82c.55-.63,1-1.3,1.53-2l1.46-2a47.42,47.42,0,0,0,2.83-4.1l2.66-4.23,2.35-4.41A87.22,87.22,0,0,0,412.53,395.68Z"/><path class="cls-1" d="M437.2,187.64l.09.22a.13.13,0,0,0,0,.05,2,2,0,0,0-.1-.21h0S437.2,187.66,437.2,187.64Z"/><path class="cls-1" d="M437.2,187.63h0s0,0,0,.05l-1-2.41a.38.38,0,0,0,.08-.11Z"/><path class="cls-1" d="M437.16,187.69h0c-.09.14-.2.27-.3.41a32.07,32.07,0,0,1-8.1,7.45,56.57,56.57,0,0,1-10.15,5.15c-3.24,1.27-6.6,2.36-10,3.36l-4.15-1.69c4.54-1.25,9-2.55,13.19-4.13a53,53,0,0,0,9.78-4.73,29.42,29.42,0,0,0,7.65-6.77c.38-.48.74-1,1.07-1.47Z"/><path class="cls-1" d="M436.24,185.17a.38.38,0,0,1-.08.11c-.28-.68-.58-1.42-.92-2.22-1.95-4.75-4.8-11.67-8.45-20.51-1.89-4.63-4-9.79-6.33-15.43l.26.09.36.82c.08.2.17.39.25.58.25.06.5.12.75.2,1.84,4.71,3.55,9.08,5.12,13.07,3.51,9,6.28,16.14,8.15,21Z"/><path class="cls-4" d="M259.52,12.79,274.9,9.57c6.94-1.46,14.45-3.18,22.39-4.68s16.41-2.68,25.1-2.2a50.27,50.27,0,0,1,25.13,7.81,70.29,70.29,0,0,1,19.54,19.28,145.55,145.55,0,0,1,13.33,24.49q2.13,4.86,4.2,9.69l.08.17c2.21,5.15,4.37,10.25,6.51,15.23,7,16.3,13.55,31.48,19.24,44.48,3.9,9,7.41,16.85,10.3,23.37l-.26-.09c2.32,5.64,4.44,10.8,6.33,15.43,3.65,8.84,6.5,15.76,8.45,20.51.34.8.64,1.54.92,2.22-.33.5-.69,1-1.07,1.47a29.42,29.42,0,0,1-7.65,6.77,53,53,0,0,1-9.78,4.73c-4.2,1.58-8.65,2.88-13.19,4.13l-3.92,1.05-5.11,1.38c-3.84,1-7.69,2-11.59,3L378,209.22l-5.88,1.35c-7.84,1.86-15.72,3.49-23.5,5L337,217.79c-3.83.66-7.6,1.34-11.33,1.95-9.7,1.58-19,2.91-27.64,4l-6.28.78-7,.79c-5.38.59-10.36,1.08-14.85,1.49q-6.27-5.23-12.52-10.52l-4.17-3.53c-9.26-7.85-18.55-15.71-28-23.38-7-5.68-14.11-11.26-21.36-16.64-1.18-.88-2.37-1.75-3.55-2.61-8.92-6.51-18.07-12.69-27.51-18.38a260.27,260.27,0,0,0-23.44-12.6,36.82,36.82,0,0,0,3.06-5.3,50.35,50.35,0,0,0,4-14,85,85,0,0,0,.38-18.86c-.55-6.89-1.72-14.26-2.51-22s-1.2-16,.43-24.28c.25-1,.44-2.06.73-3.07s.61-2,.92-3,.77-2,1.16-3a26.43,26.43,0,0,1,1.35-2.91A50.34,50.34,0,0,1,166.2,32a60.22,60.22,0,0,1,9.8-8.91,62.56,62.56,0,0,1,11.62-6.61,64.82,64.82,0,0,1,26-5.39A84.59,84.59,0,0,1,239.24,15c.91.28,1.82.57,2.71.87l1.13.38c2.69.94,5.31,2,7.84,3.14a102.47,102.47,0,0,1,10.66,5.46,139.36,139.36,0,0,1,18,12.58,233.63,233.63,0,0,1,23.9,22.87c2.72,2.94,4.82,5.29,6.24,6.9,1.15,1.31,1.86,2.12,2.1,2.38l-2-2.49c-1.35-1.67-3.34-4.11-5.92-7.18A219.76,219.76,0,0,0,280.72,36.1a139.91,139.91,0,0,0-18-13.18,104.08,104.08,0,0,0-10.79-5.76c-1.39-.66-2.82-1.29-4.26-1.89ZM327.42,92c.08-1.15.06-2.19.06-3.08s-.05-1.66-.12-2.27l-.2-1.88s0,.65,0,1.88c0,.62,0,1.37-.06,2.26s-.13,1.91-.3,3a43.16,43.16,0,0,1-6.51,17.46,46.89,46.89,0,0,1-8,9.51,55.29,55.29,0,0,1-11.26,8,67.62,67.62,0,0,1-13.71,5.7l-1.83.53-1.86.43-3.73.86-3.81.57-1.91.28c-.63.09-1.28.09-1.92.15l-3.85.28c-1.28.07-2.57,0-3.85,0a69.49,69.49,0,0,1-7.65-.42c-1.27-.06-2.5-.34-3.75-.51s-2.49-.33-3.71-.59l-3.62-.81L244.1,133l-1.75-.53a87.32,87.32,0,0,1-24-11.07c-1.68-1-3.1-2.21-4.54-3.25-.71-.54-1.43-1-2.07-1.58L209.89,115a68.67,68.67,0,0,1-5.95-5.7,27.54,27.54,0,0,1-2-2.27l-1.45-1.74-1.21-1.41,1.08,1.51,1.32,1.85a27.46,27.46,0,0,0,1.86,2.45,75.94,75.94,0,0,0,5.62,6.14c.58.56,1.17,1.15,1.78,1.75s1.31,1.13,2,1.73a53.83,53.83,0,0,0,4.46,3.54A82.08,82.08,0,0,0,241.6,135l1.79.58,1.84.46,3.72.92c1.26.29,2.54.45,3.82.69s2.57.49,3.89.55a77.05,77.05,0,0,0,7.92.49c1.33,0,2.67.08,4,0l4-.27c.67-.06,1.34-.06,2-.17l2-.3c1.32-.21,2.64-.39,4-.62l3.88-.92,1.93-.46,1.9-.56a71.43,71.43,0,0,0,14.15-6.17,58,58,0,0,0,11.52-8.74,49.15,49.15,0,0,0,7.9-10.24A42.57,42.57,0,0,0,327.42,92Z"/><path class="cls-1" d="M436.27,216.59c-.63.58-1.29,1.14-2,1.68-.85-.43-1.7-.84-2.55-1.24.73-.51,1.43-1.05,2.11-1.62C434.67,215.8,435.48,216.19,436.27,216.59Z"/><path class="cls-1" d="M431.76,217c.85.4,1.7.81,2.55,1.24a39.74,39.74,0,0,1-5.14,3.5,67.64,67.64,0,0,1-19.54,7.09c-6.9,1.49-14,2.33-21,3.22l-21,2.48c-6.92.82-13.74,1.5-20.33,2.2-4.94.51-9.77,1-14.42,1.43-1.29-.65-2.59-1.3-3.9-1.92l18-2.14,20.3-2.45,20.94-2.58c7-.85,14-1.65,20.75-3.07a64.64,64.64,0,0,0,18.83-6.55A37.08,37.08,0,0,0,431.76,217Z"/><path class="cls-1" d="M422.08,148.22l.26.66-.26-.07c-.08-.21-.17-.42-.25-.64Z"/><path class="cls-1" d="M422.08,148.22l-.25-.05-.24-.61c-.29-.13-.58-.25-.87-.35-2.89-6.52-6.4-14.42-10.3-23.37-5.69-13-12.26-28.18-19.24-44.48-2.14-5-4.3-10.08-6.51-15.23l3.07,0c2,4.8,3.93,9.54,5.88,14.18C400.4,94.71,406.68,110,412,123.17,415.95,132.84,419.33,141.34,422.08,148.22Z"/><path class="cls-1" d="M422.08,148.81c-.25-.08-.5-.14-.75-.2-.08-.19-.17-.38-.25-.58l.75.14C421.91,148.39,422,148.6,422.08,148.81Z"/><path class="cls-1" d="M421.59,147.56l.24.61-.75-.14-.36-.82C421,147.31,421.3,147.43,421.59,147.56Z"/><path class="cls-1" d="M404.72,357.15a89.46,89.46,0,0,1-1.79,77l-2.35,4.41-2.66,4.23a47.42,47.42,0,0,1-2.83,4.1l-1.46,2c-.49.67-1,1.34-1.53,2l-3.2,3.82c-.15.19-.31.37-.48.55v0c.08-.65.17-1.37.26-2.17s.06-1.68.1-2.63v-.2l1-1.19a23.14,23.14,0,0,0,1.48-1.91l1.42-2c.95-1.31,1.92-2.6,2.74-4L398,437l2.27-4.28a86.52,86.52,0,0,0,1.83-74.37A70.69,70.69,0,0,0,392,342.47c-1-1.22-2.09-2.33-3.14-3.48s-2.2-2.22-3.4-3.21a65.42,65.42,0,0,0-7.39-5.66c-10.41-6.82-22.37-10.7-34.3-12.95-6-1.12-12-1.86-18-2.37s-11.95-.68-17.84-.92c-1.47,0-2.94-.14-4.41-.15l-4.38,0-8.7,0c-2.88,0-5.74.24-8.58.35s-5.67.23-8.47.43a367.11,367.11,0,0,0-62.47,10c-9.52,2.36-18.53,5.1-27,7.88l-12.33,4.34-11.48,4.55c-1.86.7-3.65,1.52-5.41,2.31l-5.2,2.32-5,2.23-4.73,2.35-8.9,4.42-5.28,2.92,0,0,.85-.72c.29-.22.58-.42.86-.61l1.54-1.1c.29-.22.57-.41.84-.59l.07,0,.11-.07.65-.36,8.85-4.55,4.72-2.41,5-2.31,5.18-2.4c1.75-.81,3.53-1.66,5.4-2.39l11.45-4.71,12.33-4.5c8.5-2.89,17.52-5.73,27.07-8.19a362.51,362.51,0,0,1,62.72-10.59c2.82-.22,5.67-.32,8.53-.49s5.73-.37,8.63-.41l8.76-.09,4.42-.05c1.47,0,2.95.09,4.43.12,5.94.22,11.94.3,18,.84a179.78,179.78,0,0,1,18.26,2.32c12.16,2.26,24.49,6.17,35.35,13.21a66.49,66.49,0,0,1,14.59,12.84A73,73,0,0,1,404.72,357.15Z"/><path class="cls-1" d="M409.42,303.62q1,1.51,2,3.06c-.94-.14-1.87-.28-2.8-.44-.7-1.05-1.43-2.1-2.16-3.13C407.47,303.3,408.45,303.47,409.42,303.62Z"/><path class="cls-8" d="M402.09,358.37a86.52,86.52,0,0,1-1.83,74.37L398,437l-2.57,4.1c-.82,1.39-1.79,2.68-2.74,4l-1.42,2a23.14,23.14,0,0,1-1.48,1.91l-1,1.19a51.39,51.39,0,0,0,0-6.33c-.08-1.22-.16-2.51-.24-3.86s-.38-2.74-.59-4.2c-.1-.74-.21-1.48-.31-2.24s-.34-1.52-.51-2.3c-.37-1.55-.65-3.19-1.14-4.82a90.31,90.31,0,0,0-8.87-21.15,104.28,104.28,0,0,0-16.45-21.63c-.82-.89-1.71-1.72-2.62-2.55l-2.73-2.51-.17-.15c-.28-.25-.57-.49-.86-.73-1.56-1.32-3.18-2.59-4.8-3.9l-3.12-2.23c-1.06-.73-2.08-1.53-3.2-2.18-2.21-1.36-4.39-2.83-6.73-4.05-1.21-.68-2.44-1.34-3.68-2l-.95-.49A134.25,134.25,0,0,0,306.38,353l-4-1.1-4.06-.94c-2.71-.68-5.47-1.12-8.21-1.68-5.52-.93-11.09-1.72-16.68-2.18s-11.2-.72-16.79-.84-11.15,0-16.65.38c-9.07.5-18,1.38-26.66,2.67l-.29.05q-2.62.38-5.22.83c-6.18,1.07-12.21,2.31-18,3.69l-.57.13q-5.58,1.32-10.9,2.8c-9.26,2.6-17.85,5.59-25.7,8.54A287.8,287.8,0,0,0,116,382.69c-2.11,1.22-4,2.29-5.64,3.26l-2.14,1.32a58.21,58.21,0,0,1,2.34-7.88A54.68,54.68,0,0,1,117.81,366a50.33,50.33,0,0,1,4-4.67c.67-.66,1.26-1.34,1.91-1.9l1.81-1.54,5.28-2.92,8.9-4.42,4.73-2.35,5-2.23,5.2-2.32c1.76-.79,3.55-1.61,5.41-2.31l11.48-4.55,12.33-4.34c8.5-2.78,17.51-5.52,27-7.88a367.11,367.11,0,0,1,62.47-10c2.8-.2,5.63-.28,8.47-.43s5.7-.32,8.58-.35l8.7,0,4.38,0c1.47,0,2.94.1,4.41.15,5.89.24,11.86.36,17.84.92s12,1.25,18,2.37c11.93,2.25,23.89,6.13,34.3,12.95a65.42,65.42,0,0,1,7.39,5.66c1.2,1,2.27,2.13,3.4,3.21s2.16,2.26,3.14,3.48A70.69,70.69,0,0,1,402.09,358.37Z"/><path class="cls-1" d="M408.79,488.26c.42-.6.84-1.2,1.26-1.82-.41,1-.85,2.07-1.31,3.13-.49.69-1,1.36-1.47,2C407.81,490.47,408.31,489.36,408.79,488.26Z"/><path class="cls-1" d="M408.62,204.07l-1.05.31-2.73.78-4.29-1.73,3.92-1.05Z"/><path class="cls-1" d="M407.27,491.59c.49-.66,1-1.33,1.47-2-1.25,2.84-2.68,5.76-4.31,8.73a100.84,100.84,0,0,1-17,22.63c-.92.9-1.8,1.88-2.79,2.74l-3,2.62c-2,1.84-4.27,3.36-6.49,5.06-1.1.87-2.33,1.57-3.52,2.34L367.93,536,364,538c-1.3.68-2.61,1.4-4,2l-4.15,1.79-4.32,1.59c-1.44.57-2.95,1-4.44,1.43l-2.26.68c-.76.22-1.53.39-2.3.59-1.55.37-3.09.81-4.67,1.12l-4.78,1c-3.23.52-6.5,1-9.84,1.39-6.66.73-13.54,1.09-20.57,1.16s-14.23-.18-21.56-.55-14.8-.88-22.4-1.38-15.37-1.07-23.25-1.78a356.45,356.45,0,0,1-48.49-7.3,207.49,207.49,0,0,1-24.6-7.28,164.82,164.82,0,0,1-23.9-11C123,512.68,108.6,500.9,97.77,485.78a100.18,100.18,0,0,1-13-24.77,137.49,137.49,0,0,1-6.58-27.56c-2.62-18.86-2.33-38.07-2.3-57.28s.42-38.76,3.32-58.16,8.44-38.64,18.34-55.82a108.85,108.85,0,0,1,18-23.5c1.72-1.78,3.64-3.36,5.49-5l2.91-2.31,1.47-1.14,1.53-1,3-2.1,3.28,1.45c-.56.32-1.12.65-1.65,1l-3,2-1.48,1-1.42,1.11L123,236c-1.78,1.61-3.64,3.13-5.31,4.86a105.55,105.55,0,0,0-17.5,22.88,138.41,138.41,0,0,0-6.5,12.94c-1.88,4.45-3.66,9-5.09,13.57s-2.75,9.26-3.79,14-1.93,9.48-2.65,14.26C79.27,337.59,78.9,357,78.8,376.18S78.45,414.5,81,433.06a134.15,134.15,0,0,0,6.36,27,97.56,97.56,0,0,0,12.58,24.16c10.51,14.76,24.62,26.37,39.8,35a163.37,163.37,0,0,0,23.51,11,209.43,209.43,0,0,0,24.29,7.3A353.29,353.29,0,0,0,235.69,545c7.85.76,15.59,1.36,23.19,1.92s15.06,1.11,22.36,1.52,14.47.68,21.46.68,13.82-.33,20.43-1c3.32-.3,6.56-.8,9.76-1.29l4.73-.9c1.57-.29,3.1-.72,4.63-1.07.77-.19,1.53-.35,2.29-.56l2.23-.67c1.48-.46,3-.82,4.41-1.37l4.28-1.53,4.12-1.74c.6-.23,1.18-.49,1.75-.77h0l0,0c.74-.36,1.46-.74,2.18-1.11l3.86-2,3.63-2.23a39.75,39.75,0,0,0,3.5-2.29c2.22-1.66,4.5-3.14,6.48-4.94,1-.87,2-1.72,3-2.57s1.87-1.81,2.8-2.7A99.67,99.67,0,0,0,403.92,498C405.14,495.85,406.26,493.7,407.27,491.59Z"/><path class="cls-1" d="M406.5,303.11c.73,1,1.46,2.08,2.16,3.13a173.25,173.25,0,0,1-28-7.1,234.53,234.53,0,0,1-32.25-13.87c1.52.07,3,.14,4.49.14l2.18.05a226.45,226.45,0,0,0,26.47,11.07A169.43,169.43,0,0,0,406.5,303.11Z"/><path class="cls-1" d="M400.55,203.43l4.29,1.73c-2.86.82-5.74,1.66-8.65,2.45-3.85,1-7.71,2.09-11.63,3l-5.87,1.47-5.9,1.39c-7.88,1.82-15.8,3.44-23.62,4.95-3.9.76-7.8,1.41-11.64,2.1l-11.4,1.8c-8.1,1.21-15.93,2.2-23.32,3q-2.36-.82-4.73-1.62c8.63-1.09,17.94-2.42,27.64-4,3.73-.61,7.5-1.29,11.33-1.95l11.57-2.18c7.78-1.55,15.66-3.18,23.5-5l5.88-1.35,5.85-1.43c3.9-.93,7.75-2,11.59-3Z"/><path class="cls-1" d="M388.77,443.84a51.39,51.39,0,0,1,0,6.33l-.34.41v-.22a54.06,54.06,0,0,0-.26-6.48c-.11-1.21-.22-2.48-.34-3.82s-.46-2.7-.71-4.15c-.12-.72-.25-1.45-.38-2.2s-.38-1.49-.58-2.25c-.41-1.52-.73-3.13-1.27-4.73a92.75,92.75,0,0,0-9.27-20.59,104.93,104.93,0,0,0-16.56-20.9c-.81-.87-1.7-1.66-2.6-2.46s-1.71-1.52-2.57-2.3c.38-.64.77-1.27,1.14-1.89l.1-.16.17.15,2.73,2.51c.91.83,1.8,1.66,2.62,2.55a104.28,104.28,0,0,1,16.45,21.63A90.31,90.31,0,0,1,386,426.42c.49,1.63.77,3.27,1.14,4.82.17.78.34,1.55.51,2.3s.21,1.5.31,2.24c.21,1.46.4,2.86.59,4.2S388.69,442.62,388.77,443.84Z"/><path class="cls-1" d="M388.78,450.17v.2c0,.95,0,1.83-.1,2.63s-.18,1.52-.26,2.17v0a1.62,1.62,0,0,1-.18.2c0-.08,0-.17,0-.25.05-.65.11-1.38.18-2.18s0-1.53,0-2.4Z"/><path class="cls-1" d="M388.44,450.58c0,.87,0,1.66,0,2.4s-.13,1.53-.18,2.18c0,.08,0,.17,0,.25-.88,1-1.83,1.91-2.73,2.89l-1.71,1.8c-.58.6-1.21,1.13-1.81,1.7l-3.64,3.38c-2.58,2.07-5,4.28-7.76,6.15-1.35,1-2.64,2-4,2.87l-4.14,2.69A136.34,136.34,0,0,1,345.06,486l-2.24,1c-.74.33-1.51.6-2.27.9L336,489.67l-4.62,1.53-2.3.76-2.34.65c-1.55.43-3.1.88-4.66,1.29l-4.7,1.07c-1.57.39-3.14.66-4.72.94s-3.14.6-4.72.82a195.39,195.39,0,0,1-37.59,2,268.32,268.32,0,0,1-36.14-4c-11.71-2-23-4.68-34-7.53A247.31,247.31,0,0,1,169,476.87a135.69,135.69,0,0,1-27.06-14.76c-16.15-11.53-27.55-26.79-32.61-42.11a65.11,65.11,0,0,1-2.72-11.35,55.41,55.41,0,0,1-.49-5.52c0-.91-.09-1.8-.08-2.69l.09-2.64a56.44,56.44,0,0,1,1.26-9.74l.82-.47a54.43,54.43,0,0,0-1.26,10.25c0,.85,0,1.72-.06,2.6s.08,1.75.12,2.65c0,1.78.34,3.58.55,5.42a64.94,64.94,0,0,0,2.83,11.13c5.18,15,16.56,29.87,32.54,41.07a134.28,134.28,0,0,0,26.82,14.35,246.81,246.81,0,0,0,31.12,10c10.89,2.77,22.16,5.37,33.79,7.3a268.17,268.17,0,0,0,35.82,3.77A193.82,193.82,0,0,0,307.52,494c1.55-.23,3.09-.56,4.64-.83s3.1-.56,4.63-.94l4.61-1.07c1.53-.4,3.05-.85,4.57-1.28l2.29-.64,2.26-.75L335,487l4.46-1.74c.73-.3,1.49-.57,2.22-.89l2.18-1a131.22,131.22,0,0,0,17-9l4.05-2.63c1.35-.87,2.61-1.88,3.92-2.81,2.65-1.83,5.05-4,7.56-6l3.55-3.29c.58-.56,1.2-1.09,1.75-1.67l1.67-1.75c1.09-1.19,2.27-2.31,3.29-3.55Z"/><path class="cls-8" d="M388.44,450.36v.22l-1.77,2.12c-1,1.24-2.2,2.36-3.29,3.55L381.71,458c-.55.58-1.17,1.11-1.75,1.67L376.41,463c-2.51,2-4.91,4.18-7.56,6-1.31.93-2.57,1.94-3.92,2.81l-4.05,2.63a131.22,131.22,0,0,1-17,9l-2.18,1c-.73.32-1.49.59-2.22.89L335,487l-4.51,1.52-2.26.75-2.29.64c-1.52.43-3,.88-4.57,1.28l-4.61,1.07c-1.53.38-3.08.65-4.63.94s-3.09.6-4.64.83a193.82,193.82,0,0,1-37.07,2.08,268.17,268.17,0,0,1-35.82-3.77c-11.63-1.93-22.9-4.53-33.79-7.3a246.81,246.81,0,0,1-31.12-10,134.28,134.28,0,0,1-26.82-14.35c-16-11.2-27.36-26.07-32.54-41.07a64.94,64.94,0,0,1-2.83-11.13c-.21-1.84-.52-3.64-.55-5.42,0-.9-.12-1.78-.12-2.65s0-1.75.06-2.6a54.43,54.43,0,0,1,1.26-10.25l2.37-1.35c1.67-.91,3.6-1.9,5.76-3A308.76,308.76,0,0,1,153.2,367c7.86-2.77,16.45-5.58,25.69-8q5.06-1.32,10.33-2.51c0,3.54.14,7.65.44,12.24A139.37,139.37,0,0,0,192,387.37a98.1,98.1,0,0,0,6.69,21.28,73.68,73.68,0,0,0,13.84,20.82A59.65,59.65,0,0,0,222.8,438,60.75,60.75,0,0,0,235,444a70.73,70.73,0,0,0,27.43,3.68,90.19,90.19,0,0,0,27-6,92.9,92.9,0,0,0,23.3-13.07A131.74,131.74,0,0,0,331,411.76a182.49,182.49,0,0,0,13.8-17.45c3.46-4.88,6.46-9.55,9.08-13.83.86.78,1.72,1.54,2.57,2.3s1.79,1.59,2.6,2.46a104.93,104.93,0,0,1,16.56,20.9,92.75,92.75,0,0,1,9.27,20.59c.54,1.6.86,3.21,1.27,4.73.2.76.39,1.51.58,2.25s.26,1.48.38,2.2c.25,1.45.49,2.83.71,4.15s.23,2.61.34,3.82A54.06,54.06,0,0,1,388.44,450.36Z"/><path class="cls-1" d="M388.24,455.41a1.62,1.62,0,0,0,.18-.2c-.31,2.57-.47,3.94-.47,3.94S388,457.85,388.24,455.41Z"/><path class="cls-1" d="M387.65,63.94l.09.21-3.07,0-.08-.17Z"/><path class="cls-1" d="M387.65,63.94l-3.06,0q-2.07-4.83-4.2-9.69a145.55,145.55,0,0,0-13.33-24.49A70.29,70.29,0,0,0,347.52,10.5a50.27,50.27,0,0,0-25.13-7.81c-8.69-.48-17.17.72-25.1,2.2S281.84,8.11,274.9,9.57l-15.38,3.22c-.48-.27-1-.52-1.44-.78l0-.09,16.46-4c6.91-1.61,14.35-3.5,22.34-5.19s16.61-3,25.66-2.66a57.38,57.38,0,0,1,13.61,2.18,47.24,47.24,0,0,1,6.64,2.44,57.74,57.74,0,0,1,6.29,3.38,73.12,73.12,0,0,1,20.46,20A149.18,149.18,0,0,1,383,53.1C384.64,56.73,386.16,60.35,387.65,63.94Z"/><path class="cls-1" d="M355.14,378.43l-.1.16c-.37.62-.76,1.25-1.14,1.89l-.13-.11-.81-.67c.39-.58.76-1.15,1.13-1.71l.19-.29C354.57,377.94,354.86,378.18,355.14,378.43Z"/><path class="cls-1" d="M355,285.46l-2.18-.05c-1.47,0-3-.07-4.49-.14l-1.31-.69c2,.1,3.91.23,5.81.25l1,0C354.23,285.07,354.63,285.26,355,285.46Z"/><path class="cls-1" d="M354.28,377.7l-.19.29c-.37.56-.74,1.13-1.13,1.71-1.61-1.34-3.29-2.6-4.95-3.93l-3.08-2.13c-1-.71-2.05-1.47-3.15-2.1-2.18-1.3-4.32-2.72-6.63-3.89-1.38-.75-2.78-1.49-4.2-2.19l1.8-2.1c1.24.64,2.47,1.3,3.68,2,2.34,1.22,4.52,2.69,6.73,4.05,1.12.65,2.14,1.45,3.2,2.18l3.12,2.23C351.1,375.11,352.72,376.38,354.28,377.7Z"/><path class="cls-1" d="M353.77,380.37l.13.11c-2.62,4.28-5.62,8.95-9.08,13.83A182.49,182.49,0,0,1,331,411.76a131.74,131.74,0,0,1-18.27,16.9,92.9,92.9,0,0,1-23.3,13.07,90.19,90.19,0,0,1-27,6A70.73,70.73,0,0,1,235,444,60.75,60.75,0,0,1,222.8,438a59.65,59.65,0,0,1-10.28-8.48,73.68,73.68,0,0,1-13.84-20.82A98.1,98.1,0,0,1,192,387.37a139.37,139.37,0,0,1-2.33-18.65c-.3-4.59-.4-8.7-.44-12.24l.66-.15c.16,3.56.42,7.7.89,12.3a154.53,154.53,0,0,0,2.9,18.38,96.29,96.29,0,0,0,7,20.7,71.24,71.24,0,0,0,13.71,19.91A56.13,56.13,0,0,0,236,441.28a67.69,67.69,0,0,0,26.29,3.42A87.5,87.5,0,0,0,288.42,439a92.73,92.73,0,0,0,22.75-12.48c13.67-10.07,24.1-22.32,32.26-33.24,3.59-4.81,6.75-9.4,9.53-13.6Z"/><path class="cls-1" d="M353.83,284.86l-1,0c-1.9,0-3.83-.15-5.81-.25-7.82-4.1-15.47-8.6-22.95-13.39A476.87,476.87,0,0,1,284,242.1l1.62-.1,2.73-.19c12.1,9.58,24.46,18.7,37.3,26.94A293,293,0,0,0,353.83,284.86Z"/><path class="cls-1" d="M349.62,811.67a14.05,14.05,0,0,1,0,7.82,13.35,13.35,0,0,1-4.48,6.44,20.49,20.49,0,0,1-14.3,4c-4.94-.31-9.54-1.75-14-2.95s-8.9-2.23-13.25-2a18.17,18.17,0,0,0-11.51,5,25.16,25.16,0,0,0-3.39,3.89c-.48.67-.92,1.36-1.34,2.07h0a33.07,33.07,0,0,0-2.38,4.81,62.86,62.86,0,0,0-3.28,12.7c-.76,4.34-1.34,8.73-2.26,13.06a49.74,49.74,0,0,1-4.24,12.54,27.74,27.74,0,0,1-8.38,10.1,23.9,23.9,0,0,1-12.11,4.21,37.46,37.46,0,0,1-12.28-1.31,51.38,51.38,0,0,1-5.7-1.88c-.92-.35-1.82-.76-2.71-1.17s-1.8-.77-2.65-1.24a73.07,73.07,0,0,1-14.3-9.4l1.13-.06c.64,0,1.16-.07,1.55-.08a70.4,70.4,0,0,0,12.49,7.78c.83.45,1.72.79,2.58,1.18s1.75.77,2.65,1.1a48,48,0,0,0,5.49,1.74,35.44,35.44,0,0,0,11.57,1.12,21.66,21.66,0,0,0,10.94-3.88A25.24,25.24,0,0,0,273,878a47.16,47.16,0,0,0,3.93-12c.86-4.21,1.41-8.57,2.14-13a65,65,0,0,1,3.37-13.26,32.68,32.68,0,0,1,7.73-11.8,22.26,22.26,0,0,1,6.06-4.08l.85-.37.88-.31a18.15,18.15,0,0,1,1.78-.52,23.65,23.65,0,0,1,3.65-.55c4.91-.31,9.66.78,14.19,2s8.95,2.56,13.42,2.83a19.76,19.76,0,0,0,6.52-.57,15.69,15.69,0,0,0,5.75-2.82,10.42,10.42,0,0,0,3.5-5,11.1,11.1,0,0,0,0-6.18c-1.09-4.17-4.27-7.54-8.11-9.83a32.35,32.35,0,0,0-6.16-2.87,48.19,48.19,0,0,0-6.62-1.89,74.79,74.79,0,0,0-13.8-1.45c-9.32-.21-18.67.77-28.11.8a92.11,92.11,0,0,1-14.09-1,54.79,54.79,0,0,1-13.59-3.78,37.26,37.26,0,0,1-11.7-7.79,34.39,34.39,0,0,1-5.42-7.21l1.16-.63.14.18.58.75a26.39,26.39,0,0,0,3.23,3.27,21.67,21.67,0,0,0,2.12,1.6l.11.12a34.76,34.76,0,0,0,10.88,7.14,52.71,52.71,0,0,0,12.93,3.52,92.25,92.25,0,0,0,13.65.95c9.22,0,18.62-1,28.17-.85A76.74,76.74,0,0,1,326.48,795a51,51,0,0,1,7,2,34.73,34.73,0,0,1,6.7,3.11,24,24,0,0,1,5.8,4.82A17.44,17.44,0,0,1,349.62,811.67Z"/><path class="cls-9" d="M348,375.77c1.66,1.33,3.34,2.59,4.95,3.93-2.78,4.2-5.94,8.79-9.53,13.6-8.16,10.92-18.59,23.17-32.26,33.24A92.73,92.73,0,0,1,288.42,439a87.5,87.5,0,0,1-26.11,5.68A67.69,67.69,0,0,1,236,441.28a56.13,56.13,0,0,1-21.61-13.66,71.24,71.24,0,0,1-13.71-19.91,96.29,96.29,0,0,1-7-20.7,154.53,154.53,0,0,1-2.9-18.38c-.47-4.6-.73-8.74-.89-12.3q8.9-2,18.36-3.51c1.31-.22,2.62-.42,3.94-.61-.13.47-.25,1-.38,1.49a35.79,35.79,0,0,0-.58,9.3,42.46,42.46,0,0,0,.77,5.71l.8,3,.22.78.28.76.58,1.56a47.35,47.35,0,0,0,7.22,12.47,45.33,45.33,0,0,0,12.22,10.57,51.33,51.33,0,0,0,16.26,5.88,62.11,62.11,0,0,0,17.81.56,76.78,76.78,0,0,0,17.28-4.1,81.75,81.75,0,0,0,15.44-7.49,122.51,122.51,0,0,0,23.35-19.12c2.82-2.88,5.31-5.63,7.5-8.15,1.42.7,2.82,1.44,4.2,2.19,2.31,1.17,4.45,2.59,6.63,3.89,1.1.63,2.11,1.39,3.15,2.1Z"/><path class="cls-1" d="M347.06,284.58l1.31.69c-.91-.05-1.82-.1-2.75-.13-2.48-.13-5-.21-7.61-.37l-7.95-.61c-1.35-.11-2.73-.19-4.11-.33l-4.18-.44c-11.3-1.09-23.44-2.87-36.34-5.22-25.8-4.66-54.47-12.29-84.94-22.92-21.58-7.5-44-16.53-67.18-26.72l1.42-.85.8-.47c22.58,10,44.48,19,65.53,26.42,30.34,10.76,58.88,18.58,84.58,23.43,12.85,2.45,24.95,4.34,36.21,5.51L326,283c1.38.15,2.74.24,4.1.37l7.93.66c2.59.18,5.12.29,7.59.43Z"/><path class="cls-10" d="M347.06,284.58l-1.41-.08c-2.47-.14-5-.25-7.59-.43l-7.93-.66c-1.36-.13-2.72-.22-4.1-.37l-4.18-.47c-11.26-1.17-23.36-3.06-36.21-5.51-25.7-4.85-54.24-12.67-84.58-23.43-21.05-7.47-43-16.38-65.53-26.42l-3.29-1.48q-13.33-6-27-12.43-4.14-1.95-8.3-3.95L94.23,208c-13.13-6.31-26.47-12.89-40-19.61l-13.09-6.51c-4.38-2.19-8.78-4.35-12.93-6.88A49.41,49.41,0,0,1,16.9,166a29.11,29.11,0,0,1-6.65-12.59,19.26,19.26,0,0,1,1.59-13.78c2.29-4.17,6.24-7.3,10.63-9.53a57.24,57.24,0,0,1,14.24-4.77l3.73-.8,1.88-.4c.62-.12,1.26-.2,1.89-.3l3.8-.56c1.26-.17,2.52-.43,3.8-.51a144,144,0,0,1,30.92,0,181.44,181.44,0,0,1,30.73,5.94,220,220,0,0,1,34,12.8c.5-.68,1.07-1.49,1.68-2.44a1.43,1.43,0,0,1,.28.13c-.65.94-1.26,1.73-1.81,2.38a256.74,256.74,0,0,1,23.73,12.75c8.33,5,16.43,10.44,24.36,16.13,1.2.87,2.41,1.74,3.6,2.62,8.19,6,16.2,12.27,24.09,18.68,8.18,6.62,16.24,13.39,24.28,20.18l4,3.42q7,6,14.1,11.87l1.15,1q2.89,2.43,5.81,4.83,5.32,4.41,10.72,8.71c.17.15.35.29.53.43a476.87,476.87,0,0,0,40.09,29.09C331.59,276,339.24,280.48,347.06,284.58Z"/><path class="cls-6" d="M346.75,812.45a11.1,11.1,0,0,1,0,6.18,10.42,10.42,0,0,1-3.5,5,15.69,15.69,0,0,1-5.75,2.82A19.76,19.76,0,0,1,331,827c-4.47-.27-8.9-1.61-13.42-2.83s-9.28-2.31-14.19-2a23.65,23.65,0,0,0-3.65.55,18.15,18.15,0,0,0-1.78.52l-.88.31-.85.37a22.26,22.26,0,0,0-6.06,4.08,32.68,32.68,0,0,0-7.73,11.8,65,65,0,0,0-3.37,13.26c-.73,4.41-1.28,8.77-2.14,13A47.16,47.16,0,0,1,273,878a25.24,25.24,0,0,1-7.56,9.31,21.66,21.66,0,0,1-10.94,3.88,35.44,35.44,0,0,1-11.57-1.12,48,48,0,0,1-5.49-1.74c-.9-.33-1.77-.72-2.65-1.1s-1.75-.73-2.58-1.18a70.4,70.4,0,0,1-12.49-7.78l.94-.06h-1c-1.87-1.45-3.65-3-5.34-4.56A73.32,73.32,0,0,1,201.71,858a68,68,0,0,1-7.22-16.67,72.64,72.64,0,0,1-2.15-28.67c0-.2,0-.4.07-.6s0-.11,0-.17a66.24,66.24,0,0,1,1.35-7.25c.11-.51.24-1,.36-1.48s.28-1.08.42-1.6c1.74-4.24,3.87-8.68,6.08-13.43a118.94,118.94,0,0,0,6.79-17.18,65.66,65.66,0,0,0,2.24-12.37c0-.35.07-.71.09-1.07.21-2.26.35-4.57.47-6.88.2-3.54.39-7.15.81-10.78A54,54,0,0,1,213.26,729a20.31,20.31,0,0,1,2.49-4.89,11.34,11.34,0,0,1,3.92-3.61,7.57,7.57,0,0,1,2.45-.71,6.88,6.88,0,0,1,2.55.27,9,9,0,0,1,4.28,3.13,13.27,13.27,0,0,1,2.33,5.11,33.83,33.83,0,0,1,.79,6c.25,4.14.35,8.36.53,12.64s.45,8.64,1.07,13A54.52,54.52,0,0,0,237,773a38,38,0,0,0,2.13,4.41,34.39,34.39,0,0,0,5.42,7.21,37.26,37.26,0,0,0,11.7,7.79,54.79,54.79,0,0,0,13.59,3.78,92.11,92.11,0,0,0,14.09,1c9.44,0,18.79-1,28.11-.8a74.79,74.79,0,0,1,13.8,1.45,48.19,48.19,0,0,1,6.62,1.89,32.35,32.35,0,0,1,6.16,2.87C342.48,804.91,345.66,808.28,346.75,812.45Z"/><path class="cls-1" d="M331.8,362.87l.95.49-1.8,2.1-1.12-.56C330.53,364.2,331.18,363.53,331.8,362.87Z"/><path class="cls-1" d="M329,236.27c1.31.62,2.61,1.27,3.9,1.92l-4.85.45c-1.27-.61-2.56-1.21-3.85-1.8Z"/><path class="cls-1" d="M329.83,364.9l1.12.56c-2.19,2.52-4.68,5.27-7.5,8.15a122.51,122.51,0,0,1-23.35,19.12,81.75,81.75,0,0,1-15.44,7.49,76.78,76.78,0,0,1-17.28,4.1,62.11,62.11,0,0,1-17.81-.56,51.33,51.33,0,0,1-16.26-5.88,45.33,45.33,0,0,1-12.22-10.57,47.35,47.35,0,0,1-7.22-12.47l-.58-1.56-.28-.76-.22-.78-.8-3a42.46,42.46,0,0,1-.77-5.71,35.79,35.79,0,0,1,.58-9.3c.13-.52.25-1,.38-1.49l.49-.07c-.1.52-.2,1.08-.3,1.66a34.22,34.22,0,0,0,0,9.09,42.43,42.43,0,0,0,1,5.49c.29.93.6,1.89.92,2.87l.23.74.31.73.62,1.47a45.37,45.37,0,0,0,7.34,11.69,43,43,0,0,0,11.81,9.72,48.88,48.88,0,0,0,15.47,5.31,58.75,58.75,0,0,0,17,.43,74.53,74.53,0,0,0,16.64-3.84,86,86,0,0,0,15.05-7,133.9,133.9,0,0,0,23.5-18.09C325,369.73,327.58,367.22,329.83,364.9Z"/><path class="cls-11" d="M331.8,362.87c-.62.66-1.27,1.33-2,2a139.07,139.07,0,0,0-24.22-9.08l-4-1.07-4-.91c-2.66-.66-5.38-1.09-8.08-1.62-5.43-.9-10.92-1.67-16.43-2.11s-11-.73-16.57-.87-11,0-16.47.32c-9.34.45-18.55,1.28-27.45,2.58.21-1.07.42-2,.65-2.8,8.65-1.29,17.59-2.17,26.66-2.67,5.5-.36,11.07-.39,16.65-.38s11.2.31,16.79.84,11.16,1.25,16.68,2.18c2.74.56,5.5,1,8.21,1.68l4.06.94,4,1.1A134.25,134.25,0,0,1,331.8,362.87Z"/><path class="cls-1" d="M327.48,88.89c0,.89,0,1.93-.06,3.08a42.57,42.57,0,0,1-5.62,18.28,49.15,49.15,0,0,1-7.9,10.24,58,58,0,0,1-11.52,8.74,71.43,71.43,0,0,1-14.15,6.17l-1.9.56-1.93.46-3.88.92c-1.32.23-2.64.41-4,.62l-2,.3c-.66.11-1.33.11-2,.17l-4,.27c-1.33.07-2.67,0-4,0a77.05,77.05,0,0,1-7.92-.49c-1.32-.06-2.6-.37-3.89-.55s-2.56-.4-3.82-.69l-3.72-.92-1.84-.46L241.6,135a82.08,82.08,0,0,1-24.24-12.19,53.83,53.83,0,0,1-4.46-3.54c-.69-.6-1.39-1.13-2-1.73s-1.2-1.19-1.78-1.75a75.94,75.94,0,0,1-5.62-6.14,27.46,27.46,0,0,1-1.86-2.45l-1.32-1.85-1.08-1.51,1.21,1.41L201.9,107a27.54,27.54,0,0,0,2,2.27,68.67,68.67,0,0,0,5.95,5.7l1.85,1.61c.64.55,1.36,1,2.07,1.58,1.44,1,2.86,2.25,4.54,3.25a87.32,87.32,0,0,0,24,11.07l1.75.53,1.79.41,3.62.81c1.22.26,2.47.39,3.71.59s2.48.45,3.75.51a69.49,69.49,0,0,0,7.65.42c1.28,0,2.57.06,3.85,0l3.85-.28c.64-.06,1.29-.06,1.92-.15l1.91-.28,3.81-.57,3.73-.86,1.86-.43,1.83-.53a67.62,67.62,0,0,0,13.71-5.7,55.29,55.29,0,0,0,11.26-8,46.89,46.89,0,0,0,8-9.51,43.16,43.16,0,0,0,6.51-17.46c.17-1.12.23-2.14.3-3s.08-1.64.06-2.26c0-1.23,0-1.88,0-1.88l.2,1.88C327.43,87.23,327.44,88,327.48,88.89Z"/><path class="cls-1" d="M324.22,236.84c1.29.59,2.58,1.19,3.85,1.8-6,.56-11.63,1.05-16.85,1.47-9.1.77-16.91,1.3-22.85,1.7-.26-.2-.53-.41-.79-.63L311,238.4Z"/><path class="cls-11" d="M329.83,364.9c-2.25,2.32-4.79,4.83-7.59,7.48a133.9,133.9,0,0,1-23.5,18.09,86,86,0,0,1-15.05,7A74.53,74.53,0,0,1,267,401.34a58.75,58.75,0,0,1-17-.43,48.88,48.88,0,0,1-15.47-5.31,43,43,0,0,1-11.81-9.72,45.37,45.37,0,0,1-7.34-11.69l-.62-1.47-.31-.73-.23-.74c-.32-1-.63-1.94-.92-2.87a42.43,42.43,0,0,1-1-5.49,34.22,34.22,0,0,1,0-9.09c.1-.58.2-1.14.3-1.66,8.9-1.3,18.11-2.13,27.45-2.58,5.45-.34,11-.35,16.47-.32s11.06.33,16.57.87,11,1.21,16.43,2.11c2.7.53,5.42,1,8.08,1.62l4,.91,4,1.07A139.07,139.07,0,0,1,329.83,364.9Z"/><path class="cls-1" d="M309.88,67.07l2,2.49c-.24-.26-1-1.07-2.1-2.38-1.42-1.61-3.52-4-6.24-6.9a233.63,233.63,0,0,0-23.9-22.87,139.36,139.36,0,0,0-18-12.58,102.47,102.47,0,0,0-10.66-5.46c-2.53-1.15-5.15-2.2-7.84-3.14l4.59-1c1.44.6,2.87,1.23,4.26,1.89a104.08,104.08,0,0,1,10.79,5.76,139.91,139.91,0,0,1,18,13.18A219.76,219.76,0,0,1,304,59.89C306.54,63,308.53,65.4,309.88,67.07Z"/><path class="cls-1" d="M298.08,223.74q2.37.8,4.73,1.62c-2.14.24-4.25.45-6.31.65q-2.34-.76-4.7-1.49Z"/><path class="cls-1" d="M291.8,224.52q2.36.72,4.7,1.49c-4,.4-7.85.73-11.52,1-4.9.4-9.48.68-13.66.89L270,226.8c4.49-.41,9.47-.9,14.85-1.49Z"/><path class="cls-1" d="M287.58,241.18c.26.22.53.43.79.63l-2.73.19-1.62.1c-.18-.14-.36-.28-.53-.43l2.1-.25Z"/><path class="cls-1" d="M287.58,241.18l-2,.24-2.1.25q-5.4-4.29-10.72-8.71-2.91-2.4-5.81-4.83l4.36-.21,3.33,2.77C278.93,234.23,283.24,237.74,287.58,241.18Z"/><path class="cls-1" d="M270,226.8l1.35,1.12-4.36.21-1.15-1Z"/><path class="cls-1" d="M270,226.8l-4.16.37q-7.07-5.91-14.1-11.87l1.6.24c1.38.24,2.76.48,4.14.74Q263.7,221.56,270,226.8Z"/><path class="cls-1" d="M258.08,12c.48.26,1,.51,1.44.78l-11.85,2.48-1.26-.51,11.65-2.84Z"/><path class="cls-1" d="M253.28,212.75l4.17,3.53c-1.38-.26-2.76-.5-4.14-.74l-1.6-.24-4-3.42Z"/><path class="cls-1" d="M253.28,212.75l-5.62-.87c-8-6.79-16.1-13.56-24.28-20.18-7.89-6.41-15.9-12.68-24.09-18.68l1.75-.11c1-.05,1.91-.11,2.87-.18,7.25,5.38,14.35,11,21.36,16.64C234.73,197,244,204.9,253.28,212.75Z"/><path class="cls-1" d="M246.41,14.76l1.26.51-4.59,1-1.13-.38Z"/><path class="cls-1" d="M245.65,781.84l.73.75a21.67,21.67,0,0,1-2.12-1.6,26.39,26.39,0,0,1-3.23-3.27l-.58-.75c.17.19.37.43.61.73a26.66,26.66,0,0,0,3.3,3.16c.39.32.81.64,1.27,1Z"/><path class="cls-1" d="M245.63,781.82c-.46-.32-.88-.64-1.27-1a26.66,26.66,0,0,1-3.3-3.16c-.24-.3-.44-.54-.61-.73l-.14-.18-1.16.63A38,38,0,0,1,237,773a54.52,54.52,0,0,1-3.35-13.07c-.62-4.39-.88-8.74-1.07-13s-.28-8.5-.53-12.64a33.83,33.83,0,0,0-.79-6,13.27,13.27,0,0,0-2.33-5.11,9,9,0,0,0-4.28-3.13,6.88,6.88,0,0,0-2.55-.27,7.57,7.57,0,0,0-2.45.71,11.34,11.34,0,0,0-3.92,3.61,20.31,20.31,0,0,0-2.49,4.89A54,54,0,0,0,211,739.84c-.42,3.63-.61,7.24-.81,10.78-.12,2.31-.26,4.62-.47,6.88-.46-.51-1-1.07-1.51-1.66.11-1.74.19-3.51.26-5.3.15-3.55.29-7.19.67-10.91a56.34,56.34,0,0,1,2.19-11.27,22.52,22.52,0,0,1,2.69-5.43,13.29,13.29,0,0,1,4.64-4.31,9.56,9.56,0,0,1,3.22-1,9,9,0,0,1,3.38.32,11.12,11.12,0,0,1,5.42,3.84,15.6,15.6,0,0,1,2.8,5.94,35.84,35.84,0,0,1,.91,6.36c.28,4.21.42,8.43.64,12.69s.5,8.53,1.13,12.78A52.16,52.16,0,0,0,239.46,772a31.06,31.06,0,0,0,1.68,3.49A31.58,31.58,0,0,0,245.63,781.82Z"/><path class="cls-1" d="M246.41,14.76l-4.46,1.09c-.89-.3-1.8-.59-2.71-.87a84.59,84.59,0,0,0-25.64-3.93,64.82,64.82,0,0,0-26,5.39A62.56,62.56,0,0,0,176,23.05,60.22,60.22,0,0,0,166.2,32a50.34,50.34,0,0,0-7.27,10.77,26.43,26.43,0,0,0-1.35,2.91c-.39,1-.83,2-1.16,3s-.62,2-.92,3-.48,2.05-.73,3.07c-1.63,8.23-1.21,16.51-.43,24.28s2,15.15,2.51,22a85,85,0,0,1-.38,18.86,50.35,50.35,0,0,1-4,14,36.82,36.82,0,0,1-3.06,5.3,1.43,1.43,0,0,0-.28-.13,36.29,36.29,0,0,0,2.8-5.41,48.31,48.31,0,0,0,3.42-13.86,88.7,88.7,0,0,0-.22-18.56c-.73-6.78-2.07-14.1-3-22s-1.53-16.35.08-25c.25-1.08.43-2.17.73-3.24s.62-2.14.94-3.22.79-2.1,1.18-3.16a31.69,31.69,0,0,1,1.39-3.09A51.07,51.07,0,0,1,164,30.06a63.68,63.68,0,0,1,10.26-9.4,64.68,64.68,0,0,1,12.15-7,62.16,62.16,0,0,1,13.37-4.2,76.55,76.55,0,0,1,13.8-1.35A87.38,87.38,0,0,1,240,12.47Q243.28,13.52,246.41,14.76Z"/><path class="cls-1" d="M227.19,974.48a26.2,26.2,0,0,1,.32,5.36,8.22,8.22,0,0,1-.11,1.39l-.18,1.41a6.93,6.93,0,0,1-.29,1.41c-.13.47-.25.94-.38,1.42A28.07,28.07,0,0,1,224.1,991a31,31,0,0,1-3.78,5,64.09,64.09,0,0,1-10.19,8.38c-.79.54-1.57,1.08-2.36,1.64.32-1,.61-2,.86-3l.39-.26a62.5,62.5,0,0,0,10.05-7.94,30.24,30.24,0,0,0,3.68-4.66,27.21,27.21,0,0,0,2.44-5.12,23,23,0,0,0,.89-10.37,27.1,27.1,0,0,0-2.85-8.84,35.29,35.29,0,0,0-4.56-6.52,40.34,40.34,0,0,0-8.56-7.25c-.67-.45-1.27-.8-1.77-1.08v-.09c.52.26,1.15.6,1.86,1a41.06,41.06,0,0,1,8.89,7,36.14,36.14,0,0,1,4.86,6.52A28.1,28.1,0,0,1,227.19,974.48Z"/><path class="cls-1" d="M226.08,974.65a23,23,0,0,1-.89,10.37,27.21,27.21,0,0,1-2.44,5.12,30.24,30.24,0,0,1-3.68,4.66,62.5,62.5,0,0,1-10.05,7.94l-.39.26c.1-.39.2-.79.29-1.18a62,62,0,0,0,1.4-8.81,68.42,68.42,0,0,0,.06-11.25.66.66,0,0,0,0,.11s0-.46-.06-1.31-.09-2.09-.17-3.68c-.2-3.17-.41-7.7-.81-13.13-.21-2.71-.44-5.65-.67-8.76-.11-1.31-.23-2.66-.35-4,.5.28,1.1.63,1.77,1.08a40.34,40.34,0,0,1,8.56,7.25,35.29,35.29,0,0,1,4.56,6.52A27.1,27.1,0,0,1,226.08,974.65Z"/><path class="cls-1" d="M219.63,878.23h1l-.94.06Z"/><path class="cls-1" d="M219.63,878.23l.09.07c-.39,0-.91,0-1.55.08l-1.13.06-.27-.23h2.86Z"/><path class="cls-1" d="M219.63,878.23h-2.86c-1-.88-2.06-1.79-3-2.7l.25-.08-.25.07-.63-.59a74.13,74.13,0,0,1-12.62-16.2,68.52,68.52,0,0,1-7.07-17.09c-.06-.21-.11-.43-.16-.64v0a74,74,0,0,1-1.5-28.44l.59.13a72.64,72.64,0,0,0,2.15,28.67A68,68,0,0,0,201.71,858a73.32,73.32,0,0,0,12.58,15.68C216,875.25,217.76,876.78,219.63,878.23Z"/><path class="cls-1" d="M216.77,878.21l.27.23c-1.53.09-3.52.23-5.92.23s-5.45,0-8.79-.06c.59-.12,1.17-.24,1.72-.37l1.51-.41c2,.14,3.9.22,5.56.26C213.37,878.22,215.27,878.21,216.77,878.21Z"/><path class="cls-12" d="M204.56,958.72c.12.32.37,1,.76,1.94.31.72.62,1.63,1,2.71s.76,2.36,1.18,3.8A72.76,72.76,0,0,1,209.63,978a67.55,67.55,0,0,1,.11,14.93,60.51,60.51,0,0,1-1.49,8.7c-.16.64-.33,1.29-.51,1.94h0c-1.45,1-2.92,2-4.42,2.89-2,1.21-4,2.41-6.05,3.56-4.14,2.33-8.51,4.52-13,6.63-2.27,1.06-4.57,2.1-6.91,3.15l-3.52,1.56c-1.17.53-2.35,1-3.55,1.49-9.64,3.79-19.94,6.92-30.43,10l-2,.59-.49.15-.25.07-.13,0-1,.21-4,.83c-2.69.57-5.41,1-8.12,1.54s-5.45.92-8.18,1.37-5.48.81-8.23,1.13a211.7,211.7,0,0,1-32.9,1.71A141.2,141.2,0,0,1,43,1036c-1.24-.35-2.5-.63-3.72-1l-3.63-1.19c-1.58-.47-3.11-1.06-4.62-1.66a12.84,12.84,0,0,1-.12-1.66c-.19-3.06-.37-6.14-.56-9.23s-.34-6.16-.51-9.26q-1-18.57-1.47-37.56-.08-3-.14-6.11c.51,0,1,.08,1.42.15l1.7.28,1.2.34.93.25-.92-.29-1.19-.39-1.69-.35a14,14,0,0,0-1.45-.21c-.49-23.24-.27-46.78.73-70.32.73-25.73,1.88-51.39,4.17-76.57.52-5.73,1.07-11.45,1.71-17.16.31-2.87.66-5.72,1-8.58L37,786.83V776.54l0-.22.06-.62.13-1.23.26-2.47.53-4.94,2.25-19.74c2.14-18.65,4.27-37.35,5.53-56.12v-.08c0-1.85.86-3.85,1.48-6.06a15.45,15.45,0,0,0,.38-1.75c0-.3.08-.61.1-.93s0-.63,0-.89c0-1.07,0-2.13.12-3.21.18-2.72.51-5.45.69-8.21,0-.69.08-1.39.1-2.08,0-.35,0-.7,0-1v-.53l0-.43a20.16,20.16,0,0,1,.74-3.73c.35-1.29.73-2.59,1-4a12.89,12.89,0,0,0,.21-2.18c0-.65,0-1.29,0-1.93a54.71,54.71,0,0,1,1-7.64c2-10.2,3.64-20.16,4.92-29.72,2.57-19.15,4-36.78,5.47-52.39s2.82-29.19,4.33-40.33c.2-1.38.34-2.75.56-4.06s.5-2.57.75-3.79c.49-2.45,1-4.75,1.36-6.9a80.9,80.9,0,0,0,1.38-11c0-1.06.06-2,0-2.92.19.65.38,1.3.59,1.95A66.71,66.71,0,0,0,81.3,517.81a67.48,67.48,0,0,0,16.65,15.53,177.06,177.06,0,0,0,19.5,11.16l19.77,10L184,578.29c-.1.69-.21,1.4-.33,2.14-.49,3.19-1,6.8-1.54,10.75s-1.06,8.22-1.61,12.75-1,9.31-1.57,14.25-1,10.07-1.4,15.28-.8,10.49-1.19,15.79-.63,10.59-.87,15.81-.41,10.35-.6,15.32c-.28,9.95-.41,19.23-.35,27.19,0,4,.05,7.63.13,10.86.05,2,.09,3.77.14,5.41l-3.18-2.69c-2.46-2.07-4.59-3.7-6-4.88l-1.73-1.33-.61-.47.5.59,1.44,1.63c1.27,1.37,3,3.4,5.25,5.71l3.59,3.72.84.84.55.55,2.68,2.7,4.41,4.32,4.61,4.39,4.68,4.32c1.54,1.44,3.1,2.79,4.59,4.13,3,2.66,5.82,5.09,8.29,7.14,1.26,1.06,2.43,2,3.47,2.84A66.51,66.51,0,0,1,206,770.56a119.43,119.43,0,0,1-6.42,17.1c-2.35,5.26-4.59,10.2-6.36,14.89l0,.07c-.69-.4-1.39-.83-2.11-1.27a134,134,0,0,1-14.41-10.42c-.15-.95-.32-1.75-.41-2.38-.1-.47-.17-.83-.22-1.08l-.09-.38s0,.13-.08.38-.11.62-.19,1.09-.12.85-.2,1.37l-.25-.2c-2.75-2.32-5.45-4.88-8.18-7.49s-5.34-5.43-7.9-8.29-5.05-5.8-7.43-8.75-4.66-5.9-6.81-8.81-4.23-5.72-6.13-8.44-3.73-5.29-5.38-7.68l-8-11.56-2.26-3.22c-.39-.57-.65-.93-.76-1.07l.63,1.15L125,729c1.69,2.95,4,7.2,7,12.18,1.52,2.49,3.17,5.18,5,8s3.77,5.73,5.84,8.74,4.35,6,6.69,9.06,4.88,6,7.46,8.95,5.34,5.7,8.11,8.38,5.66,5.14,8.52,7.44l1.56,1.23c-.06.63-.12,1.3-.18,2-.05.91-.1,1.88-.16,2.88s-.06,2-.09,3.07,0,2.11,0,3.17c0,.65,0,1.29.05,1.93-5.58-2.11-11.74-4.79-18.2-7.76-3.72-1.85-7.58-3.71-11.39-5.82s-7.64-4.31-11.46-6.54c-3.72-2.39-7.51-4.67-11-7.21s-7-5-10.36-7.49c-1.65-1.25-3.23-2.55-4.79-3.79l-2.32-1.85c-.76-.62-1.47-1.26-2.19-1.88l-4.22-3.61c-1.36-1.17-2.6-2.38-3.82-3.5l-3.51-3.25-3.07-3-2.72-2.65c-.83-.83-1.54-1.64-2.21-2.34l-3.12-3.28c-.55-.58-.91-.94-1-1.08l.93,1.19,2.8,3.55c.62.75,1.28,1.61,2.05,2.51l2.5,2.87,2.87,3.26c1,1.12,2.16,2.26,3.33,3.46s2.37,2.47,3.68,3.72l4.08,3.84c.71.65,1.41,1.33,2.15,2l2.28,1.94c1.54,1.31,3.09,2.67,4.72,4,3.32,2.56,6.7,5.29,10.34,7.79s7.38,5,11.14,7.4c3.89,2.23,7.72,4.56,11.66,6.54,3.86,2.14,7.85,3.86,11.65,5.66A203.07,203.07,0,0,0,174.82,808c.72.22,1.42.44,2.12.64l.72.22h0c1.35.41,2.64.81,3.89,1.16l4.21,1.06,3.69.92.85.19.63.13.82.16a74,74,0,0,0,1.5,28.44v0c0,.21.1.43.16.64a68.52,68.52,0,0,0,7.07,17.09,74.13,74.13,0,0,0,12.62,16.2l.63.59h0c1,.91,2,1.82,3,2.7-1.5,0-3.4,0-5.65-.12-1.66,0-3.52-.12-5.56-.26-.8,0-1.64-.1-2.5-.17l-.81-.07-1.18-.1c-4.4-.39-9.41-1-14.88-1.89A200.34,200.34,0,0,1,152,866.66c-6.08-2.18-12.21-4.84-18.34-7.72a201.25,201.25,0,0,1-18-10A203.39,203.39,0,0,1,99,837.09c-5.27-4.26-10.29-8.67-14.88-13.21A183.64,183.64,0,0,1,71.5,810.17c-2-2.23-3.68-4.54-5.41-6.73s-3.24-4.43-4.77-6.51a185.91,185.91,0,0,1-13-21.43c-1.47-2.65-2.43-4.84-3.16-6.29-.54-1.12-.9-1.83-1-2.11.11.28.42,1,.89,2.17.64,1.5,1.48,3.74,2.79,6.49a169.57,169.57,0,0,0,12.1,22.12c1.49,2.15,3,4.45,4.62,6.73s3.36,4.65,5.26,7a188.74,188.74,0,0,0,12.48,14.16,200.69,200.69,0,0,0,14.94,13.6,203.4,203.4,0,0,0,16.95,12.17,201.73,201.73,0,0,0,18.3,10,189.85,189.85,0,0,0,18.71,7.61,182.62,182.62,0,0,0,34.78,8.14c3.49.45,6.8.77,9.88,1,1.83.13,3.57.23,5.23.29,0,.1,0,.21,0,.31,0,1.71-.05,3.56,0,5.53,0,5.46.16,11.81.5,18.61.19,3.4.35,6.92.64,10.48s.56,7.18.86,10.8.72,7.23,1.07,10.78.8,7,1.18,10.42.84,6.64,1.23,9.73.81,6,1.18,8.7.74,5.16,1.08,7.35c-.36-1.53-.74-2.92-1.1-4.16-.44-1.44-.83-2.71-1.24-3.78s-.71-2-1-2.69C205,959.69,204.69,959,204.56,958.72Zm-74.22-96.66-.21-.14Z"/><path class="cls-1" d="M213.73,875.5l.25-.07-.25.08Z"/><path class="cls-1" d="M213,349.39l.29-.05c-.23.79-.44,1.73-.65,2.8l-.49.07C212.46,351.13,212.74,350.19,213,349.39Z"/><path class="cls-1" d="M213,349.39c-.29.8-.57,1.74-.85,2.82-1.32.19-2.63.39-3.94.61q-9.45,1.5-18.36,3.51c0-.71-.07-1.4-.1-2.06,0-.12,0-.24,0-.36,5.83-1.38,11.86-2.62,18-3.69Q210.4,349.77,213,349.39Z"/><path class="cls-1" d="M210.38,981.76a68.42,68.42,0,0,1-.06,11.25,62,62,0,0,1-1.4,8.81c-.09.39-.19.79-.29,1.18l-.89.59c.18-.65.35-1.3.51-1.94a60.51,60.51,0,0,0,1.49-8.7,67.55,67.55,0,0,0-.11-14.93,72.76,72.76,0,0,0-2.15-10.85c-.42-1.44-.78-2.72-1.18-3.8s-.67-2-1-2.71c-.39-1-.64-1.62-.76-1.94.13.32.41,1,.8,1.93.32.71.64,1.61,1,2.69s.8,2.34,1.24,3.78c.36,1.24.74,2.63,1.1,4.16h0c.34,2.18.64,4.08.86,5.65s.46,2.8.59,3.64c.08.5.14.86.18,1.07a0,0,0,0,1,0,0S210.38,981.74,210.38,981.76Z"/><path class="cls-1" d="M206.84,950.12l.71.4.79.44c.12,1.37.24,2.72.35,4,.23,3.11.46,6,.67,8.76.4,5.43.61,10,.81,13.13.08,1.59.13,2.83.17,3.68s.06,1.31.06,1.31a.66.66,0,0,1,0-.11s0-.05,0-.08a0,0,0,0,0,0,0,67.81,67.81,0,0,0-1.63-10.36h0c-.34-2.19-.71-4.65-1.08-7.35s-.76-5.61-1.18-8.7-.8-6.36-1.23-9.73-.78-6.87-1.18-10.42-.71-7.17-1.07-10.78-.61-7.23-.86-10.8-.45-7.08-.64-10.48c-.34-6.8-.52-13.15-.5-18.61,0-2,0-3.82,0-5.53l.09,0,1.2-.24c.11,1.76.25,3.68.39,5.73.37,5.42.87,11.74,1.41,18.5.29,3.38.59,6.87.89,10.42s.64,7.16,1,10.76.64,7.22,1,10.77.62,7,.92,10.43q.24,2.88.48,5.64l-.77-.39Z"/><path class="cls-1" d="M210.36,981.65c0-.21-.1-.57-.18-1.07-.13-.84-.33-2.07-.59-3.64s-.52-3.47-.86-5.65A67.81,67.81,0,0,1,210.36,981.65Z"/><path class="cls-1" d="M209.76,757.5c0,.36-.06.72-.09,1.07l-1.54-1.22c.05-.5.08-1,.12-1.51C208.8,756.43,209.3,757,209.76,757.5Z"/><path class="cls-1" d="M208.13,757.35l1.54,1.22a65.66,65.66,0,0,1-2.24,12.37,118.94,118.94,0,0,1-6.79,17.18c-2.21,4.75-4.34,9.19-6.08,13.43l.12-.45a78.1,78.1,0,0,1,2.73-7.69c.44-1,.83-1.92,1.17-2.69l1-1.91.73-1.45c-.11.19-.36.67-.77,1.43l-1,1.89-1.24,2.66a78.11,78.11,0,0,0-2.9,7.66c-.19.63-.38,1.28-.56,1.95l-.57-.33,0-.07c1.77-4.69,4-9.63,6.36-14.89a119.43,119.43,0,0,0,6.42-17.1A66.51,66.51,0,0,0,208.13,757.35Z"/><path class="cls-1" d="M207.74,1003.59l.89-.59c-.25,1-.54,2-.86,3l-1,.71q.56-1.57,1-3.12Z"/><path class="cls-1" d="M208.34,950.87V951l-.79-.44-.71-.4.73.36Z"/><path class="cls-1" d="M208.25,755.84c0,.51-.07,1-.12,1.51-1-.83-2.21-1.78-3.47-2.84-2.47-2.05-5.3-4.48-8.29-7.14-1.49-1.34-3.05-2.69-4.59-4.13l-4.68-4.32-4.61-4.39-4.41-4.32-2.68-2.7,0-.71c0-.73,0-1.51.08-2.34l0,0,4.35,3.8,4.58,4.13,4.68,4.31,4.61,4.4c1.54,1.43,3,2.91,4.42,4.31,2.84,2.81,5.46,5.48,7.66,7.82C206.72,754.17,207.52,755,208.25,755.84Z"/><path class="cls-1" d="M207.73,1003.59q-.43,1.54-1,3.12h0c-.75.51-1.52,1-2.31,1.53-2,1.27-4,2.52-6.07,3.73-4.16,2.42-8.56,4.69-13.1,6.89-2.27,1.1-4.57,2.17-6.9,3.25l-3.52,1.62c-1.18.55-2.37,1.1-3.61,1.58-9.77,3.92-20.1,7.15-30.58,10.36l-2,.6-.5.14-.24.08-.36.09-1,.21-4.05.85c-2.71.58-5.45,1-8.18,1.58s-5.49,1-8.25,1.41-5.52.84-8.3,1.16a212.52,212.52,0,0,1-33.38,1.63,139.12,139.12,0,0,1-32-4.86c-1.27-.37-2.55-.67-3.79-1.08l-3.7-1.26c-1-.32-2-.68-3-1.06a3.48,3.48,0,0,0-.23-.38l0-.1a23.13,23.13,0,0,1-.54-2.54c1.51.6,3,1.19,4.62,1.66l3.63,1.19c1.22.39,2.48.67,3.72,1a141.2,141.2,0,0,0,31.46,4.52,211.7,211.7,0,0,0,32.9-1.71c2.75-.32,5.49-.76,8.23-1.13s5.46-.88,8.18-1.37,5.43-1,8.12-1.54l4-.83,1-.21.13,0,.25-.07.49-.15,2-.59c10.49-3.12,20.79-6.25,30.43-10,1.2-.44,2.38-1,3.55-1.49l3.52-1.56c2.34-1,4.64-2.09,6.91-3.15,4.53-2.11,8.9-4.3,13-6.63,2.07-1.15,4.09-2.35,6.05-3.56C204.81,1005.56,206.28,1004.56,207.73,1003.59Z"/><path class="cls-1" d="M205.56,877.83l-1.51.41c-.55.13-1.13.25-1.72.37h0c0-.29-.05-.58-.06-.86.27,0,.54-.05.8-.09C203.92,877.73,204.76,877.79,205.56,877.83Z"/><path class="cls-1" d="M203.91,172.73c-1,.07-1.91.13-2.87.18l-1.75.11c-1.19-.88-2.4-1.75-3.6-2.62l4.67-.28C201.54,171,202.73,171.85,203.91,172.73Z"/><path class="cls-1" d="M202.25,877.59l.81.07c-.26,0-.53.06-.8.09A.92.92,0,0,1,202.25,877.59Z"/><path d="M202.33,878.61h0Z"/><path class="cls-1" d="M202.32,878.61h0l-1.2.24-.09,0c0-.1,0-.21,0-.31Z"/><path class="cls-1" d="M202.26,877.75c0,.28,0,.57.06.86l-1.28,0c0-.24,0-.47,0-.7Z"/><path class="cls-1" d="M202.25,877.59a.92.92,0,0,0,0,.16l-1.21.12c0-.13,0-.25,0-.38Z"/><path class="cls-1" d="M201.07,877.49c0,.13,0,.25,0,.38H201c-1,.1-2.09.25-3.21.31l-1.95.09c-3.08-.21-6.39-.53-9.88-1a182.62,182.62,0,0,1-34.78-8.14,189.85,189.85,0,0,1-18.71-7.61,201.73,201.73,0,0,1-18.3-10,203.4,203.4,0,0,1-16.95-12.17,200.69,200.69,0,0,1-14.94-13.6,188.74,188.74,0,0,1-12.48-14.16c-1.9-2.32-3.58-4.71-5.26-7s-3.13-4.58-4.62-6.73a169.57,169.57,0,0,1-12.1-22.12c-1.31-2.75-2.15-5-2.79-6.49-.47-1.15-.78-1.89-.89-2.17.14.28.5,1,1,2.11.73,1.45,1.69,3.64,3.16,6.29a185.91,185.91,0,0,0,13,21.43c1.53,2.08,3.06,4.3,4.77,6.51s3.46,4.5,5.41,6.73a183.64,183.64,0,0,0,12.62,13.71c4.59,4.54,9.61,8.95,14.88,13.21A203.39,203.39,0,0,0,115.74,849a201.25,201.25,0,0,0,18,10c6.13,2.88,12.26,5.54,18.34,7.72a200.34,200.34,0,0,0,34.16,8.94C191.66,876.49,196.67,877.1,201.07,877.49Z"/><path class="cls-1" d="M201,877.87c0,.23,0,.46,0,.7-1.66-.06-3.4-.16-5.23-.29l1.95-.09c1.12-.06,2.18-.21,3.21-.31Z"/><path class="cls-1" d="M200.36,170.12l-4.67.28c-7.93-5.69-16-11.11-24.36-16.13a256.74,256.74,0,0,0-23.73-12.75c.55-.65,1.16-1.44,1.81-2.38a260.27,260.27,0,0,1,23.44,12.6C182.29,157.43,191.44,163.61,200.36,170.12Z"/><path class="cls-1" d="M200.27,787.36l-.73,1.45-1,1.91c-.34.77-.73,1.67-1.17,2.69a78.1,78.1,0,0,0-2.73,7.69l-.12.45c-.18.44-.36.87-.53,1.3a1.46,1.46,0,0,0-.07.19l-.16-.09c.18-.67.37-1.32.56-1.95a78.11,78.11,0,0,1,2.9-7.66l1.24-2.66,1-1.89C199.91,788,200.16,787.55,200.27,787.36Z"/><path class="cls-1" d="M194,802.85c.17-.43.35-.86.53-1.3-.14.52-.28,1-.42,1.6L194,803A1.46,1.46,0,0,1,194,802.85Z"/><path class="cls-1" d="M194,803l.18.11c-.12.48-.25,1-.36,1.48l-.36-.18Q193.67,803.75,194,803Z"/><path class="cls-1" d="M194,803q-.28.71-.54,1.41h0c.13-.51.27-1,.41-1.49Z"/><path class="cls-1" d="M193.23,802.62l.57.33c-.14.48-.28,1-.41,1.49l-.7-.34Z"/><path class="cls-1" d="M193.42,804.45l.36.18a66.24,66.24,0,0,0-1.35,7.25c0,.06,0,.11,0,.17l-.57-.17s0-.05,0-.08a69.83,69.83,0,0,1,1.45-7Z"/><path class="cls-1" d="M193.42,804.45l-.12.3.09-.31Z"/><path class="cls-1" d="M193.39,804.44l-.09.31c-.88,2.38-1.62,4.7-2.2,6.93l-.62-.18a74.31,74.31,0,0,1,2.21-7.4Z"/><path class="cls-1" d="M193.23,802.62l-.54,1.48c-.79-.39-1.6-.81-2.43-1.25a107.81,107.81,0,0,1-13.11-8.34c-.08-.75-.17-1.45-.24-2.12s-.13-1-.2-1.46a134,134,0,0,0,14.41,10.42C191.84,801.79,192.54,802.22,193.23,802.62Z"/><path class="cls-1" d="M192.41,812.05c0,.2-.05.4-.07.6l-.59-.13.09-.64Z"/><path class="cls-1" d="M191.84,811.88l-.09.64-.82-.16c0-.22.11-.45.17-.68Z"/><path class="cls-1" d="M191.1,811.68c-.06.23-.12.46-.17.68l-.63-.13c.05-.24.11-.49.18-.73Z"/><path class="cls-1" d="M190.48,811.5c-.07.24-.13.49-.18.73l-.85-.19-3.69-.92-4.21-1.06c-1.25-.35-2.54-.75-3.89-1.16h0c0-.54,0-1.09,0-1.65v-.13l4.29,1.57,4.09,1.36,3.6,1.2Z"/><path class="cls-1" d="M189.88,356.33l-.66.15c0-.76,0-1.49,0-2.2V354l.57-.13c0,.12,0,.24,0,.36C189.81,354.93,189.84,355.62,189.88,356.33Z"/><path class="cls-1" d="M189.2,354.28c0,.71,0,1.44,0,2.2q-5.28,1.19-10.33,2.51c-9.24,2.41-17.83,5.22-25.69,8a308.76,308.76,0,0,0-36.89,16.22c-2.16,1.14-4.09,2.13-5.76,3l-2.37,1.35a3,3,0,0,1,.07-.32l2.14-1.32c1.62-1,3.53-2,5.64-3.26a287.8,287.8,0,0,1,36.57-17.31c7.85-2.95,16.44-5.94,25.7-8.54q5.33-1.47,10.9-2.8Z"/><path class="cls-1" d="M184.41,575.48l.75.38c-.08.92-.17,1.89-.26,2.91l-.93-.48C184.13,577.3,184.27,576.36,184.41,575.48Z"/><path class="cls-1" d="M184,578.29l.93.48c0,.58-.1,1.18-.15,1.79-.28,3.22-.6,6.85-.94,10.81s-.73,8.24-1.1,12.78-.77,9.32-1.16,14.27-.8,10.06-1.14,15.26-.73,10.48-1.09,15.76-.69,10.57-1,15.77-.57,10.33-.85,15.28c-.49,9.92-.94,19.18-1.27,27.12-.17,4-.33,7.61-.47,10.83-.1,2.21-.19,4.23-.25,6-.25-.2-.49-.41-.73-.62-.05-1.64-.09-3.45-.14-5.41-.08-3.23-.14-6.88-.13-10.86-.06-8,.07-17.24.35-27.19.19-5,.31-10.11.6-15.32s.57-10.52.87-15.81.75-10.59,1.19-15.79.94-10.33,1.4-15.28,1-9.73,1.57-14.25,1.08-8.81,1.61-12.75,1.05-7.56,1.54-10.75C183.76,579.69,183.87,579,184,578.29Z"/><path class="cls-1" d="M184.41,575.48c-.14.88-.28,1.82-.44,2.81l-46.75-23.74-19.77-10a177.06,177.06,0,0,1-19.5-11.16A67.48,67.48,0,0,1,81.3,517.81,66.71,66.71,0,0,1,71,497.36c-.21-.65-.4-1.3-.59-1.95,0-1.64-.1-3-.2-4-.09-.76-.16-1.33-.22-1.72,0-.06,0-.11,0-.16s0-.23,0-.31l1.78-.39c.58,2.57,1.26,5.12,2.05,7.62a64.16,64.16,0,0,0,9.8,19.6,64.87,64.87,0,0,0,16,14.9,175.12,175.12,0,0,0,19.17,11l19.75,10.08Z"/><path class="cls-1" d="M177.61,800.9l.09,3.17c0,1,0,2,0,3l-.2-.07-2.73-1c0-.64,0-1.28-.05-1.93,0-1.06,0-2.13,0-3.17s.06-2.08.09-3.07.11-2,.16-2.88c.06-.69.12-1.36.18-2,.67.52,1.34,1,2,1.51,0,.15,0,.3,0,.45.08.91.16,1.88.24,2.87S177.55,799.86,177.61,800.9Z"/><path class="cls-1" d="M177.69,807.24c0,.56,0,1.11,0,1.65l-.72-.22c-.7-.2-1.4-.42-2.12-.64,0-.25,0-.5,0-.75,0-.41,0-.82,0-1.24l2.73,1,.2.07Z"/><path class="cls-1" d="M176.91,792.39c.07.67.16,1.37.24,2.12-.66-.49-1.33-1-2-1.51,0-.2,0-.4,0-.59.09-.92.21-1.76.32-2.48.4.35.8.68,1.19,1C176.78,791.38,176.85,791.87,176.91,792.39Z"/><path class="cls-1" d="M176.3,788.55c.09.63.26,1.43.41,2.38-.39-.32-.79-.65-1.19-1,.08-.52.15-1,.2-1.37s.15-.84.19-1.09.08-.38.08-.38l.09.38C176.13,787.72,176.2,788.08,176.3,788.55Z"/><path class="cls-1" d="M175.27,789.73l.25.2c-.11.72-.23,1.56-.32,2.48,0,.19,0,.39,0,.59l-1.56-1.23c-2.86-2.3-5.73-4.78-8.52-7.44s-5.48-5.49-8.11-8.38S151.88,770,149.5,767s-4.59-6.08-6.69-9.06-4-5.94-5.84-8.74-3.45-5.51-5-8c-3-5-5.34-9.23-7-12.18l-1.9-3.45-.63-1.15c.11.14.37.5.76,1.07l2.26,3.22,8,11.56c1.65,2.39,3.44,5,5.38,7.68s4,5.55,6.13,8.44,4.44,5.86,6.81,8.81,4.87,5.89,7.43,8.75,5.2,5.65,7.9,8.29S172.52,787.41,175.27,789.73Z"/><path class="cls-1" d="M174.78,723.84c.24.21.48.42.73.62,0,.83-.06,1.61-.08,2.34l0,.71-.55-.55a.86.86,0,0,1,0-.16C174.82,725.89,174.8,724.9,174.78,723.84Z"/><path class="cls-1" d="M174.84,726.8a.86.86,0,0,0,0,.16l-.84-.84-3.59-3.72c-2.22-2.31-4-4.34-5.25-5.71l-1.44-1.63-.5-.59.61.47,1.73,1.33c1.44,1.18,3.57,2.81,6,4.88l3.18,2.69C174.8,724.9,174.82,725.89,174.84,726.8Z"/><path class="cls-1" d="M174.8,807.28c0,.25,0,.5,0,.75a203.07,203.07,0,0,1-19.36-7.35c-3.8-1.8-7.79-3.52-11.65-5.66-3.94-2-7.77-4.31-11.66-6.54-3.76-2.45-7.58-4.79-11.14-7.4s-7-5.23-10.34-7.79c-1.63-1.33-3.18-2.69-4.72-4l-2.28-1.94c-.74-.65-1.44-1.33-2.15-2l-4.08-3.84c-1.31-1.25-2.5-2.53-3.68-3.72s-2.3-2.34-3.33-3.46l-2.87-3.26-2.5-2.87c-.77-.9-1.43-1.76-2.05-2.51l-2.8-3.55L79.28,741c.14.14.5.5,1,1.08l3.12,3.28c.67.7,1.38,1.51,2.21,2.34l2.72,2.65,3.07,3L95,756.59c1.22,1.12,2.46,2.33,3.82,3.5L103,763.7c.72.62,1.43,1.26,2.19,1.88l2.32,1.85c1.56,1.24,3.14,2.54,4.79,3.79,3.34,2.47,6.72,5.09,10.36,7.49s7.33,4.82,11,7.21c3.82,2.23,7.59,4.56,11.46,6.54s7.67,4,11.39,5.82c6.46,3,12.62,5.65,18.2,7.76C174.78,806.46,174.79,806.87,174.8,807.28Z"/><path class="cls-1" d="M149.13,139c-.61.95-1.18,1.76-1.68,2.44a220,220,0,0,0-34-12.8,181.44,181.44,0,0,0-30.73-5.94,144,144,0,0,0-30.92,0c-1.28.08-2.54.34-3.8.51l-3.8.56c-.63.1-1.27.18-1.89.3l-1.88.4-3.73.8a57.24,57.24,0,0,0-14.24,4.77c-4.39,2.23-8.34,5.36-10.63,9.53a19.26,19.26,0,0,0-1.59,13.78A29.11,29.11,0,0,0,16.9,166,49.41,49.41,0,0,0,28.2,175c4.15,2.53,8.55,4.69,12.93,6.88l13.09,6.51c13.54,6.72,26.88,13.3,40,19.61-.52.6-1,1.21-1.53,1.82-13-6.19-26.19-12.63-39.57-19.22L40,184.16c-4.39-2.17-8.85-4.35-13.15-7A52.25,52.25,0,0,1,15,167.71,31.7,31.7,0,0,1,7.68,154,24.34,24.34,0,0,1,7.12,146a20.36,20.36,0,0,1,2.38-7.72,23,23,0,0,1,5.1-6.24,33.11,33.11,0,0,1,6.63-4.41,59.73,59.73,0,0,1,14.85-5l3.82-.83,1.91-.42c.64-.12,1.29-.2,1.94-.31l3.87-.58c1.29-.18,2.58-.45,3.89-.53a146.84,146.84,0,0,1,31.51-.1,182.69,182.69,0,0,1,31.22,6A223.93,223.93,0,0,1,149.13,139Z"/><path class="cls-1" d="M135.53,227.21l-.8.47-1.42.85L130,227.08h0c.71-.48,1.45-.91,2.19-1.34Z"/><path class="cls-1" d="M133.4,352.71l-2.06,1.17c-.43.25-.93.52-1.48.86l-.11.07-.07,0-.78.44a23.25,23.25,0,0,1,2.42-1.44Z"/><path class="cls-1" d="M132.24,225.73c-.74.43-1.48.86-2.19,1.34h0q-12.72-5.65-25.71-11.74-4.43-2.07-8.88-4.19c.48-.61,1-1.21,1.54-1.8q4.17,2,8.3,3.95Q118.9,219.75,132.24,225.73Z"/><path d="M130.13,861.92l.21.14Z"/><path class="cls-1" d="M128.9,355.29l.78-.44c-.27.18-.55.37-.84.59l-1.54,1.1c-.28.19-.57.39-.86.61l-.85.72,0,0-.73.4.67-.56.87-.72c.29-.21.58-.4.86-.59l1.57-1.07Z"/><path class="cls-1" d="M124.82,358.31l.73-.4-1.81,1.54c-.65.56-1.24,1.24-1.91,1.9a50.33,50.33,0,0,0-4,4.67,54.68,54.68,0,0,0-7.22,13.37,58.21,58.21,0,0,0-2.34,7.88l-.82.5a58.7,58.7,0,0,1,2.62-8.58,54.67,54.67,0,0,1,7.49-13.38,51.31,51.31,0,0,1,4.12-4.63c.68-.65,1.28-1.33,2-1.87Z"/><path class="cls-1" d="M108.25,387.27a3,3,0,0,0-.07.32l-.82.47c0-.09,0-.19.07-.29Z"/><path class="cls-1" d="M94.23,208,97,209.35c-.55.59-1.06,1.19-1.54,1.8l-2.74-1.3C93.2,209.24,93.71,208.63,94.23,208Z"/><path class="cls-1" d="M92.7,209.85l2.74,1.3a89,89,0,0,0-10.27,15.47c-7,13.31-11,28.08-13.34,43s-3.14,30.21-3.38,45.44c-.12,7.62-.09,15.25-.1,22.89V406.6q0,22.82,0,45.53c.08,7.55.34,15.07,1.1,22.51a122.42,122.42,0,0,0,2.28,14.22l-1.78.39c0,.08,0,.18,0,.31s0,.1,0,.16c.05.39.1,1,.17,1.73.08.93.15,2.14.15,3.61a116,116,0,0,1-3.77-20.12c-.78-7.57-1-15.18-1.13-22.78q0-22.71-.06-45.56t0-45.73q0-11.44,0-22.9c0-7.63,0-15.28.08-22.94.25-15.3,1-30.67,3.45-45.86S75.38,239,82.57,225.24A92.74,92.74,0,0,1,92.7,209.85Z"/><path class="cls-1" d="M70.46,495.41c0,.88,0,1.86,0,2.92a80.9,80.9,0,0,1-1.38,11c-.39,2.15-.87,4.45-1.36,6.9-.25,1.22-.49,2.49-.75,3.79s-.36,2.68-.56,4.06c-1.51,11.14-2.92,24.73-4.33,40.33s-2.9,33.24-5.47,52.39c-1.28,9.56-2.92,19.52-4.92,29.72a54.71,54.71,0,0,0-1,7.64c0,.64,0,1.28,0,1.93a12.89,12.89,0,0,1-.21,2.18c-.26,1.39-.64,2.69-1,4a20.16,20.16,0,0,0-.74,3.73l0,.43V667c0,.33,0,.68,0,1,0,.69-.06,1.39-.1,2.08-.18,2.76-.51,5.49-.69,8.21-.07,1.08-.12,2.14-.12,3.21,0,.26,0,.56,0,.89s-.06.63-.1.93a15.45,15.45,0,0,1-.38,1.75c-.62,2.21-1.48,4.21-1.48,6.06v.08c-1.26,18.77-3.39,37.47-5.53,56.12L38,767.06,37.43,772l-.26,2.47L37,775.7l-.06.62,0,.22v10.29l-1.09,8.65c-.34,2.86-.69,5.71-1,8.58-.64,5.71-1.19,11.43-1.71,17.16-2.29,25.18-3.44,50.84-4.17,76.57-1,23.54-1.22,47.08-.73,70.32a23.89,23.89,0,0,0-2.91-.12c-.51-23.24-.33-46.81.65-70.32.76-25.7,1.94-51.48,4.27-76.73.56-5.74,1.12-11.48,1.79-17.22.32-2.87.67-5.73,1-8.6l1.1-8.48,0-9.85v-.37a3.92,3.92,0,0,1,0-.4l.06-.61.14-1.25.27-2.47.55-4.94L37.59,747c2.26-18.61,4.48-37.21,5.84-55.87.06-2.6,1.07-4.7,1.61-6.71.13-.49.25-1,.33-1.46,0-.24.06-.48.07-.71s0-.46,0-.77c0-1.13.07-2.25.15-3.36.21-2.8.56-5.52.75-8.19q.07-1,.12-2l0-1v-.49l0-.58a22.62,22.62,0,0,1,.85-4.17c.37-1.3.74-2.57,1-3.79a11.15,11.15,0,0,0,.2-1.78c0-.68,0-1.37.06-2a56.56,56.56,0,0,1,1.09-7.92q3.13-15.27,5.15-29.58c2.74-19.07,4.39-36.67,6.06-52.25S64.16,535.16,65.8,524c.22-1.4.38-2.75.62-4.06l.81-3.79c.54-2.45,1-4.74,1.48-6.88a80.44,80.44,0,0,0,1.55-11c.07-1.2.1-2.29.1-3.26C70.39,495.18,70.42,495.29,70.46,495.41Z"/><path class="cls-1" d="M70.46,495.41c0-.12-.07-.23-.1-.35,0-1.47-.07-2.68-.15-3.61-.07-.76-.12-1.34-.17-1.73.06.39.13,1,.22,1.72C70.36,492.44,70.45,493.77,70.46,495.41Z"/><path class="cls-1" d="M32.6,969.06l.92.29-.93-.25-1.2-.34-1.7-.28c-.44-.07-.91-.12-1.42-.15a.81.81,0,0,1,0-.22,14,14,0,0,1,1.45.21l1.69.35Z"/><path class="cls-1" d="M31.61,1034.69l0,.1a4.21,4.21,0,0,0-3.18-1.77,14.61,14.61,0,0,1-.21-2l.39.15,2.43,1A23.13,23.13,0,0,0,31.61,1034.69Z"/><path class="cls-1" d="M30.95,1030.49a12.84,12.84,0,0,0,.12,1.66l-2.43-1-.39-.15h0c0-.14,0-.29,0-.43q-.3-4.56-.6-9.17c-.18-3.07-.37-6.17-.55-9.26-.7-12.41-1.24-25-1.57-37.64q-.09-3.11-.15-6.21a21.43,21.43,0,0,1,2.9,0q.06,3.06.14,6.11.5,19,1.47,37.56c.17,3.1.34,6.18.51,9.26S30.76,1027.43,30.95,1030.49Z"/><path class="cls-1" d="M28.46,1033a5.8,5.8,0,0,0-1.61.11,44.6,44.6,0,0,1-12-7.45C7.44,1019.29,2.41,1011,.67,1002.56a30.65,30.65,0,0,1-.1-12.21,28.18,28.18,0,0,1,4.17-10.16,28.74,28.74,0,0,1,13.75-10.9A24.1,24.1,0,0,1,24.9,968h.46c0,.11,0,.22,0,.33l-.44,0a23.61,23.61,0,0,0-6.24,1.5A27.33,27.33,0,0,0,2,990.62a29.35,29.35,0,0,0,.38,11.58c1.82,7.93,6.78,15.79,13.95,21.77A41.56,41.56,0,0,0,28.25,1031h0A14.61,14.61,0,0,0,28.46,1033Z"/><path class="cls-1" d="M28.27,968.11a.81.81,0,0,0,0,.22,21.43,21.43,0,0,0-2.9,0c0-.11,0-.22,0-.33A23.89,23.89,0,0,1,28.27,968.11Z"/><path class="cls-1" d="M28.24,1030.6c0,.14,0,.29,0,.43A41.56,41.56,0,0,1,16.31,1024c-7.17-6-12.13-13.84-13.95-21.77A29.35,29.35,0,0,1,2,990.62a27.33,27.33,0,0,1,16.71-20.78,23.61,23.61,0,0,1,6.24-1.5l.44,0q.06,3.11.15,6.21c.33,12.66.87,25.23,1.57,37.64.18,3.09.37,6.19.55,9.26S28,1027.56,28.24,1030.6Z"/><path class="cls-13" d="M258.08,12c.48.26,1,.51,1.44.78a147.91,147.91,0,0,1,57,55.48"/></g></g></svg>